<?xml version="1.0" encoding="utf-8"?>
<!-- Generator: Adobe Illustrator 17.1.0, SVG Export Plug-In . SVG Version: 6.00 Build 0)  -->
<!DOCTYPE svg PUBLIC "-//W3C//DTD SVG 1.1//EN" "http://www.w3.org/Graphics/SVG/1.1/DTD/svg11.dtd">
<svg version="1.1" xmlns="http://www.w3.org/2000/svg" xmlns:xlink="http://www.w3.org/1999/xlink" x="0px" y="0px"
	 viewBox="0 0 1157 689" enable-background="new 0 0 1157 689" xml:space="preserve">
<g id="Guides" display="none">
</g>
<g id="Guide" display="none">
	
		<image display="inline" overflow="visible" width="3264" height="2448" xlink:href="10EC4E57.jpg"  transform="matrix(0.3361 0 0 0.3361 -130.4453 -226.5894)">
	</image>
</g>
<g id="Sky" display="none">
	<rect x="-5433.5" y="-112.5" display="inline" fill="#BDCCD4" width="6400" height="801"/>
</g>
<g id="Clouds" display="none">
	<path display="inline" fill="#E6E6E6" d="M944.9-2.8c0,4.4,4.1,8.2,10,9.7c0,0,0,0,0,0c8.9,2.8,25.8,4.7,45.2,4.7
		c15.9,0,30.1-1.3,39.6-3.3c10-1,17.7-6.7,17.7-13.6c0-7.6-9.3-13.8-20.9-13.8c-1.4,0-2.8,0.1-4.2,0.3c-0.4-7.9-10.3-14.3-22.4-14.3
		c-11.1,0-20.3,5.3-22.1,12.3c-1.7-0.3-3.6-0.5-5.5-0.5c-8.4,0-15.7,3.4-18.7,8.2c-0.9-0.1-1.9-0.2-2.9-0.2
		C952-13.2,944.9-8.6,944.9-2.8z"/>
	<path display="inline" fill="#E6E6E6" d="M727.9,19.7c0,9.1-8.4,17-20.3,20.1c0,0,0,0-0.1,0c-18.1,5.8-52.5,9.8-92,9.8
		c-32.4,0-61.3-2.7-80.7-6.8c-20.4-2.1-36-13.9-36-28.2c0-15.8,19-28.6,42.5-28.6c2.9,0,5.8,0.2,8.5,0.6
		c0.8-16.5,20.9-29.7,45.7-29.7c22.6,0,41.3,11,45,25.5c3.5-0.7,7.3-1,11.2-1c17.2,0,31.9,7.1,38.1,17.1c1.9-0.2,3.9-0.4,6-0.4
		C713.5-2,727.9,7.7,727.9,19.7z"/>
</g>
<g id="Ground" display="none">
	<rect x="-5433.5" y="350.5" display="inline" fill="#918377" width="6400" height="142"/>
</g>
<g id="Grass" display="none">
	<rect x="-5433.5" y="492" display="inline" fill="#093806" width="6400" height="196"/>
</g>
<g id="Mountain001_1_" display="none">
	<path display="inline" fill="#03160C" d="M-2750.9,379.5c31.8-47.4,109.7-277,306-265.5c196.4,11.5,167.5,196.6,545.4,195.3
		c377.9-1.3,354.7-206.3,551.9-217.6c199.5-11.4,305.3,251.1,462.3,249.1c157-2,265.7-126.7,494-221.3
		C-163.1,24.9,16.9,379.5,16.9,379.5l-903.7,0.2L-2750.9,379.5z"/>
</g>
<g id="Mountain002_1_" display="none">
	<path display="inline" fill="#021E0F" d="M-492.2,376c26.8-33,92.3-193.2,257.4-185.2C-69.5,198.8-93.8,327.9,224,327
		c317.9-0.9,298.4-143.9,464.3-151.8c167.8-7.9,256.8,175.2,388.9,173.8c132.1-1.4,223.6-88.4,415.5-154.4
		c192-66,343.3,181.4,343.3,181.4l-760.2,0.1L-492.2,376z"/>
</g>
<g id="Mountain003" display="none">
	<path display="inline" fill="#132B1E" d="M2256.6,328.5c-168,15.2-105-101.7-312-95.8c-207,5.9-79.5,94.7-333,104
		c-253.5,9.3-220.5-108.7-429-109.8c-208.5-1.2-250.5,127.4-427.5,126.2c-177-1.2-214.5-119.2-406.5-120.4
		C230.4,232,68.8,335.9,0.5,339.4c-126.7,6.6-345.6-100-697.4-114.1c-216.3-8.6-382,142.8-518.3,121.5
		c-114.1-17.8-331.3,0.4-348.2,34.6l4387-3.9c0,0,32.4-176.9-181-177.8C2429.1,198.8,2424.6,313.3,2256.6,328.5"/>
</g>
<g id="TrainTrack_1_" display="none">
</g>
<g id="Auschwitz" display="none">
	<g id="Back">
		<g id="Layer_4" display="inline">
		</g>
	</g>
	<g id="Front" display="inline">
	</g>
</g>
<g id="BergenBelson">
	<polygon fill="#999999" stroke="#000000" stroke-miterlimit="10" points="631,291.7 631,356.1 814.9,381.3 813.5,308.9 
		699.5,220.9 	"/>
	<polygon fill="#808080" stroke="#000000" stroke-miterlimit="10" points="814.7,381.3 1146,353.6 1146,284.4 813.3,308.9 	"/>
	<polygon fill="#4D4D4D" stroke="#000000" stroke-miterlimit="10" points="699.5,220.9 1063,195.5 1146.3,284.4 813.5,308.9 	"/>
	<polygon fill="#999999" stroke="#000000" stroke-miterlimit="10" points="63,330.5 63,401.5 265.7,429.3 264.2,349.5 138.5,252.5 	
		"/>
	<polygon fill="#808080" stroke="#000000" stroke-miterlimit="10" points="265.7,429.3 631,398.8 631,322.5 264.2,349.5 	"/>
	<polygon fill="#4D4D4D" stroke="#000000" stroke-miterlimit="10" points="138.5,252.5 539.1,224.5 631,322.5 264.2,349.5 	"/>
	<polygon fill="#999999" stroke="#000000" stroke-miterlimit="10" points="448,379.5 448,450.5 650.7,478.3 649.2,398.5 
		523.5,301.5 	"/>
	<polygon fill="#808080" stroke="#000000" stroke-miterlimit="10" points="650.7,478.3 1016,447.8 1016,371.5 649.2,398.5 	"/>
	<polygon fill="#4D4D4D" stroke="#000000" stroke-miterlimit="10" points="523.5,301.5 924.1,273.5 1016,371.5 649.2,398.5 	"/>
	<g id="Fence">
		<g id="Poles">
			<polyline fill="none" stroke="#000000" stroke-width="8" stroke-linejoin="round" stroke-miterlimit="10" points="923.5,477.5 
				923.5,58.5 985.7,3.2 			"/>
			<polyline fill="none" stroke="#000000" stroke-width="8" stroke-linejoin="round" stroke-miterlimit="10" points="1052.5,477.5 
				1052.5,58.5 1114.7,3.2 			"/>
			<polyline fill="none" stroke="#000000" stroke-width="8" stroke-linejoin="round" stroke-miterlimit="10" points="792.5,477.5 
				792.5,58.5 854.7,3.2 			"/>
			<polyline fill="none" stroke="#000000" stroke-width="8" stroke-linejoin="round" stroke-miterlimit="10" points="660.5,477.5 
				660.5,58.5 722.7,3.2 			"/>
			<polyline fill="none" stroke="#000000" stroke-width="8" stroke-linejoin="round" stroke-miterlimit="10" points="529.5,477.5 
				529.5,58.5 591.7,3.2 			"/>
			<polyline fill="none" stroke="#000000" stroke-width="8" stroke-linejoin="round" stroke-miterlimit="10" points="398.5,477.5 
				398.5,58.5 460.7,3.2 			"/>
			<polyline fill="none" stroke="#000000" stroke-width="8" stroke-linejoin="round" stroke-miterlimit="10" points="267.5,477.5 
				267.5,58.5 329.7,3.2 			"/>
			<polyline fill="none" stroke="#000000" stroke-width="8" stroke-linejoin="round" stroke-miterlimit="10" points="135.5,477.5 
				135.5,58.5 197.7,3.2 			"/>
			<polyline fill="none" stroke="#000000" stroke-width="8" stroke-linejoin="round" stroke-miterlimit="10" points="4.5,477.5 
				4.5,58.5 66.7,3.2 			"/>
		</g>
		<g id="CrossPattern">
			<line fill="none" stroke="#000000" stroke-linejoin="round" stroke-miterlimit="10" x1="49.5" y1="26" x2="1197.5" y2="26"/>
			<line fill="none" stroke="#000000" stroke-linejoin="round" stroke-miterlimit="10" x1="40.5" y1="33" x2="1197.5" y2="33"/>
			<line fill="none" stroke="#000000" stroke-linejoin="round" stroke-miterlimit="10" x1="31.5" y1="39" x2="1192.5" y2="39"/>
			<line fill="none" stroke="#000000" stroke-linejoin="round" stroke-miterlimit="10" x1="1181.5" y1="46" x2="20.5" y2="46"/>
			<line fill="none" stroke="#000000" stroke-linejoin="round" stroke-miterlimit="10" x1="14.5" y1="52" x2="1174.5" y2="52"/>
			<line fill="none" stroke="#000000" stroke-linejoin="round" stroke-miterlimit="10" x1="4.5" y1="59" x2="1114.5" y2="59"/>
			<line fill="none" stroke="#000000" stroke-linejoin="round" stroke-miterlimit="10" x1="4.5" y1="456.6" x2="24.5" y2="476.6"/>
			<g>
				<defs>
					<rect id="XMLID_1_" x="4" y="59" width="1159" height="419"/>
				</defs>
				<clipPath id="XMLID_6_">
					<use xlink:href="#XMLID_1_"  overflow="visible"/>
				</clipPath>
				<g clip-path="url(#XMLID_6_)">
					
						<line fill="none" stroke="#000000" stroke-linejoin="round" stroke-miterlimit="10" x1="280.1" y1="-145.9" x2="-566" y2="534.4"/>
					
						<line fill="none" stroke="#000000" stroke-linejoin="round" stroke-miterlimit="10" x1="1420.5" y1="249.1" x2="574.4" y2="929.4"/>
					<g>
						
							<line fill="none" stroke="#000000" stroke-linejoin="round" stroke-miterlimit="10" x1="873.3" y1="-86.9" x2="27.2" y2="593.3"/>
						
							<line fill="none" stroke="#000000" stroke-linejoin="round" stroke-miterlimit="10" x1="671.4" y1="-262" x2="-174.7" y2="418.3"/>
						
							<line fill="none" stroke="#000000" stroke-linejoin="round" stroke-miterlimit="10" x1="570" y1="-349.9" x2="-276.1" y2="330.4"/>
						
							<line fill="none" stroke="#000000" stroke-linejoin="round" stroke-miterlimit="10" x1="610.7" y1="-314.6" x2="-235.4" y2="365.7"/>
						
							<line fill="none" stroke="#000000" stroke-linejoin="round" stroke-miterlimit="10" x1="650.6" y1="-280" x2="-195.5" y2="400.3"/>
						
							<line fill="none" stroke="#000000" stroke-linejoin="round" stroke-miterlimit="10" x1="589.9" y1="-332.6" x2="-256.1" y2="347.7"/>
						
							<line fill="none" stroke="#000000" stroke-linejoin="round" stroke-miterlimit="10" x1="630.7" y1="-297.3" x2="-215.4" y2="383"/>
						
							<line fill="none" stroke="#000000" stroke-linejoin="round" stroke-miterlimit="10" x1="691.3" y1="-244.7" x2="-154.8" y2="435.6"/>
						
							<line fill="none" stroke="#000000" stroke-linejoin="round" stroke-miterlimit="10" x1="711.3" y1="-227.4" x2="-134.8" y2="452.9"/>
						
							<line fill="none" stroke="#000000" stroke-linejoin="round" stroke-miterlimit="10" x1="752" y1="-192.1" x2="-94.1" y2="488.2"/>
						
							<line fill="none" stroke="#000000" stroke-linejoin="round" stroke-miterlimit="10" x1="732" y1="-209.4" x2="-114" y2="470.9"/>
						
							<line fill="none" stroke="#000000" stroke-linejoin="round" stroke-miterlimit="10" x1="771.9" y1="-174.8" x2="-74.2" y2="505.4"/>
						
							<line fill="none" stroke="#000000" stroke-linejoin="round" stroke-miterlimit="10" x1="812.6" y1="-139.5" x2="-33.4" y2="540.7"/>
						
							<line fill="none" stroke="#000000" stroke-linejoin="round" stroke-miterlimit="10" x1="792.7" y1="-156.8" x2="-53.4" y2="523.5"/>
						
							<line fill="none" stroke="#000000" stroke-linejoin="round" stroke-miterlimit="10" x1="853.3" y1="-104.2" x2="7.3" y2="576"/>
						
							<line fill="none" stroke="#000000" stroke-linejoin="round" stroke-miterlimit="10" x1="933.9" y1="-34.4" x2="87.9" y2="645.9"/>
						
							<line fill="none" stroke="#000000" stroke-linejoin="round" stroke-miterlimit="10" x1="832.6" y1="-122.2" x2="-13.5" y2="558"/>
						
							<line fill="none" stroke="#000000" stroke-linejoin="round" stroke-miterlimit="10" x1="893.2" y1="-69.7" x2="47.2" y2="610.6"/>
						
							<line fill="none" stroke="#000000" stroke-linejoin="round" stroke-miterlimit="10" x1="914" y1="-51.7" x2="67.9" y2="628.6"/>
					</g>
					<g>
						
							<line fill="none" stroke="#000000" stroke-linejoin="round" stroke-miterlimit="10" x1="1420.7" y1="114.1" x2="574.6" y2="794.3"/>
						
							<line fill="none" stroke="#000000" stroke-linejoin="round" stroke-miterlimit="10" x1="1218.8" y1="-61" x2="372.7" y2="619.3"/>
						
							<line fill="none" stroke="#000000" stroke-linejoin="round" stroke-miterlimit="10" x1="1117.4" y1="-148.9" x2="271.3" y2="531.4"/>
						
							<line fill="none" stroke="#000000" stroke-linejoin="round" stroke-miterlimit="10" x1="1158.1" y1="-113.6" x2="312" y2="566.7"/>
						
							<line fill="none" stroke="#000000" stroke-linejoin="round" stroke-miterlimit="10" x1="1198" y1="-79" x2="351.9" y2="601.3"/>
						
							<line fill="none" stroke="#000000" stroke-linejoin="round" stroke-miterlimit="10" x1="1137.4" y1="-131.6" x2="291.3" y2="548.7"/>
						
							<line fill="none" stroke="#000000" stroke-linejoin="round" stroke-miterlimit="10" x1="1178.1" y1="-96.3" x2="332" y2="584"/>
						
							<line fill="none" stroke="#000000" stroke-linejoin="round" stroke-miterlimit="10" x1="1238.7" y1="-43.7" x2="392.6" y2="636.6"/>
						
							<line fill="none" stroke="#000000" stroke-linejoin="round" stroke-miterlimit="10" x1="1258.7" y1="-26.4" x2="412.6" y2="653.9"/>
						
							<line fill="none" stroke="#000000" stroke-linejoin="round" stroke-miterlimit="10" x1="1299.4" y1="8.9" x2="453.3" y2="689.2"/>
						
							<line fill="none" stroke="#000000" stroke-linejoin="round" stroke-miterlimit="10" x1="1279.4" y1="-8.4" x2="433.4" y2="671.9"/>
						
							<line fill="none" stroke="#000000" stroke-linejoin="round" stroke-miterlimit="10" x1="1319.3" y1="26.2" x2="473.2" y2="706.4"/>
						
							<line fill="none" stroke="#000000" stroke-linejoin="round" stroke-miterlimit="10" x1="1360" y1="61.5" x2="514" y2="741.7"/>
						
							<line fill="none" stroke="#000000" stroke-linejoin="round" stroke-miterlimit="10" x1="1340.1" y1="44.2" x2="494" y2="724.5"/>
						
							<line fill="none" stroke="#000000" stroke-linejoin="round" stroke-miterlimit="10" x1="1400.8" y1="96.8" x2="554.7" y2="777"/>
						
							<line fill="none" stroke="#000000" stroke-linejoin="round" stroke-miterlimit="10" x1="1481.4" y1="166.6" x2="635.3" y2="846.9"/>
						
							<line fill="none" stroke="#000000" stroke-linejoin="round" stroke-miterlimit="10" x1="1380" y1="78.8" x2="533.9" y2="759"/>
						
							<line fill="none" stroke="#000000" stroke-linejoin="round" stroke-miterlimit="10" x1="1440.6" y1="131.3" x2="594.6" y2="811.6"/>
						
							<line fill="none" stroke="#000000" stroke-linejoin="round" stroke-miterlimit="10" x1="1461.4" y1="149.3" x2="615.3" y2="829.6"/>
					</g>
					<g>
						
							<line fill="none" stroke="#000000" stroke-linejoin="round" stroke-miterlimit="10" x1="860.8" y1="-650.4" x2="1675.6" y2="55.9"/>
						
							<line fill="none" stroke="#000000" stroke-linejoin="round" stroke-miterlimit="10" x1="651.2" y1="-481.9" x2="1466" y2="224.5"/>
						
							<line fill="none" stroke="#000000" stroke-linejoin="round" stroke-miterlimit="10" x1="545.9" y1="-397.2" x2="1360.7" y2="309.1"/>
						
							<line fill="none" stroke="#000000" stroke-linejoin="round" stroke-miterlimit="10" x1="588.2" y1="-431.2" x2="1403" y2="275.1"/>
						
							<line fill="none" stroke="#000000" stroke-linejoin="round" stroke-miterlimit="10" x1="629.6" y1="-464.5" x2="1444.4" y2="241.8"/>
						
							<line fill="none" stroke="#000000" stroke-linejoin="round" stroke-miterlimit="10" x1="566.6" y1="-413.9" x2="1381.4" y2="292.5"/>
						
							<line fill="none" stroke="#000000" stroke-linejoin="round" stroke-miterlimit="10" x1="608.9" y1="-447.9" x2="1423.7" y2="258.5"/>
						
							<line fill="none" stroke="#000000" stroke-linejoin="round" stroke-miterlimit="10" x1="671.9" y1="-498.5" x2="1486.7" y2="207.8"/>
						
							<line fill="none" stroke="#000000" stroke-linejoin="round" stroke-miterlimit="10" x1="692.6" y1="-515.2" x2="1507.4" y2="191.2"/>
						
							<line fill="none" stroke="#000000" stroke-linejoin="round" stroke-miterlimit="10" x1="734.8" y1="-549.1" x2="1549.7" y2="157.2"/>
						
							<line fill="none" stroke="#000000" stroke-linejoin="round" stroke-miterlimit="10" x1="714.1" y1="-532.5" x2="1529" y2="173.8"/>
						
							<line fill="none" stroke="#000000" stroke-linejoin="round" stroke-miterlimit="10" x1="755.5" y1="-565.8" x2="1570.4" y2="140.5"/>
						
							<line fill="none" stroke="#000000" stroke-linejoin="round" stroke-miterlimit="10" x1="797.8" y1="-599.8" x2="1612.7" y2="106.6"/>
						
							<line fill="none" stroke="#000000" stroke-linejoin="round" stroke-miterlimit="10" x1="777.1" y1="-583.1" x2="1592" y2="123.2"/>
						
							<line fill="none" stroke="#000000" stroke-linejoin="round" stroke-miterlimit="10" x1="840.1" y1="-633.8" x2="1654.9" y2="72.6"/>
						
							<line fill="none" stroke="#000000" stroke-linejoin="round" stroke-miterlimit="10" x1="923.8" y1="-701.1" x2="1738.6" y2="5.3"/>
						
							<line fill="none" stroke="#000000" stroke-linejoin="round" stroke-miterlimit="10" x1="818.5" y1="-616.4" x2="1633.4" y2="89.9"/>
						
							<line fill="none" stroke="#000000" stroke-linejoin="round" stroke-miterlimit="10" x1="881.5" y1="-667.1" x2="1696.4" y2="39.3"/>
						
							<line fill="none" stroke="#000000" stroke-linejoin="round" stroke-miterlimit="10" x1="903.1" y1="-684.4" x2="1717.9" y2="21.9"/>
					</g>
					<g>
						
							<line fill="none" stroke="#000000" stroke-linejoin="round" stroke-miterlimit="10" x1="469.1" y1="-323.4" x2="1284" y2="382.9"/>
						
							<line fill="none" stroke="#000000" stroke-linejoin="round" stroke-miterlimit="10" x1="259.5" y1="-154.9" x2="1074.3" y2="551.5"/>
						
							<line fill="none" stroke="#000000" stroke-linejoin="round" stroke-miterlimit="10" x1="154.2" y1="-70.2" x2="969" y2="636.1"/>
						
							<line fill="none" stroke="#000000" stroke-linejoin="round" stroke-miterlimit="10" x1="196.5" y1="-104.2" x2="1011.3" y2="602.1"/>
						
							<line fill="none" stroke="#000000" stroke-linejoin="round" stroke-miterlimit="10" x1="237.9" y1="-137.5" x2="1052.7" y2="568.8"/>
						
							<line fill="none" stroke="#000000" stroke-linejoin="round" stroke-miterlimit="10" x1="174.9" y1="-86.9" x2="989.8" y2="619.5"/>
						
							<line fill="none" stroke="#000000" stroke-linejoin="round" stroke-miterlimit="10" x1="217.2" y1="-120.9" x2="1032" y2="585.5"/>
						
							<line fill="none" stroke="#000000" stroke-linejoin="round" stroke-miterlimit="10" x1="280.2" y1="-171.5" x2="1095" y2="534.8"/>
						
							<line fill="none" stroke="#000000" stroke-linejoin="round" stroke-miterlimit="10" x1="300.9" y1="-188.2" x2="1115.7" y2="518.2"/>
						
							<line fill="none" stroke="#000000" stroke-linejoin="round" stroke-miterlimit="10" x1="343.1" y1="-222.1" x2="1158" y2="484.2"/>
						
							<line fill="none" stroke="#000000" stroke-linejoin="round" stroke-miterlimit="10" x1="322.4" y1="-205.5" x2="1137.3" y2="500.8"/>
						
							<line fill="none" stroke="#000000" stroke-linejoin="round" stroke-miterlimit="10" x1="363.9" y1="-238.8" x2="1178.7" y2="467.5"/>
						
							<line fill="none" stroke="#000000" stroke-linejoin="round" stroke-miterlimit="10" x1="406.1" y1="-272.8" x2="1221" y2="433.6"/>
						
							<line fill="none" stroke="#000000" stroke-linejoin="round" stroke-miterlimit="10" x1="385.4" y1="-256.1" x2="1200.3" y2="450.2"/>
						
							<line fill="none" stroke="#000000" stroke-linejoin="round" stroke-miterlimit="10" x1="448.4" y1="-306.8" x2="1263.3" y2="399.6"/>
						
							<line fill="none" stroke="#000000" stroke-linejoin="round" stroke-miterlimit="10" x1="532.1" y1="-374.1" x2="1346.9" y2="332.3"/>
						
							<line fill="none" stroke="#000000" stroke-linejoin="round" stroke-miterlimit="10" x1="426.8" y1="-289.4" x2="1241.7" y2="416.9"/>
						
							<line fill="none" stroke="#000000" stroke-linejoin="round" stroke-miterlimit="10" x1="489.8" y1="-340.1" x2="1304.7" y2="366.3"/>
						
							<line fill="none" stroke="#000000" stroke-linejoin="round" stroke-miterlimit="10" x1="511.4" y1="-357.4" x2="1326.2" y2="348.9"/>
					</g>
					<g>
						
							<line fill="none" stroke="#000000" stroke-linejoin="round" stroke-miterlimit="10" x1="71.4" y1="-2.4" x2="695.2" y2="538.3"/>
						
							<line fill="none" stroke="#000000" stroke-linejoin="round" stroke-miterlimit="10" x1="-138.2" y1="166.1" x2="485.6" y2="706.9"/>
						
							<line fill="none" stroke="#000000" stroke-linejoin="round" stroke-miterlimit="10" x1="-243.5" y1="250.8" x2="380.3" y2="791.5"/>
						
							<line fill="none" stroke="#000000" stroke-linejoin="round" stroke-miterlimit="10" x1="-201.2" y1="216.8" x2="422.6" y2="757.5"/>
						
							<line fill="none" stroke="#000000" stroke-linejoin="round" stroke-miterlimit="10" x1="-159.8" y1="183.5" x2="464" y2="724.2"/>
						
							<line fill="none" stroke="#000000" stroke-linejoin="round" stroke-miterlimit="10" x1="-222.8" y1="234.1" x2="401" y2="774.9"/>
						
							<line fill="none" stroke="#000000" stroke-linejoin="round" stroke-miterlimit="10" x1="-180.5" y1="200.1" x2="443.3" y2="740.9"/>
						
							<line fill="none" stroke="#000000" stroke-linejoin="round" stroke-miterlimit="10" x1="-117.5" y1="149.5" x2="506.3" y2="690.2"/>
						
							<line fill="none" stroke="#000000" stroke-linejoin="round" stroke-miterlimit="10" x1="-96.8" y1="132.8" x2="527" y2="673.6"/>
						
							<line fill="none" stroke="#000000" stroke-linejoin="round" stroke-miterlimit="10" x1="-54.5" y1="98.9" x2="569.3" y2="639.6"/>
						
							<line fill="none" stroke="#000000" stroke-linejoin="round" stroke-miterlimit="10" x1="-75.2" y1="115.5" x2="548.6" y2="656.2"/>
						
							<line fill="none" stroke="#000000" stroke-linejoin="round" stroke-miterlimit="10" x1="-33.8" y1="82.2" x2="590" y2="622.9"/>
						<line fill="none" stroke="#000000" stroke-linejoin="round" stroke-miterlimit="10" x1="8.5" y1="48.2" x2="632.3" y2="589"/>
						
							<line fill="none" stroke="#000000" stroke-linejoin="round" stroke-miterlimit="10" x1="-12.3" y1="64.9" x2="611.5" y2="605.6"/>
						
							<line fill="none" stroke="#000000" stroke-linejoin="round" stroke-miterlimit="10" x1="50.7" y1="14.2" x2="674.5" y2="555"/>
						
							<line fill="none" stroke="#000000" stroke-linejoin="round" stroke-miterlimit="10" x1="134.4" y1="-53.1" x2="758.2" y2="487.7"/>
						
							<line fill="none" stroke="#000000" stroke-linejoin="round" stroke-miterlimit="10" x1="29.2" y1="31.6" x2="653" y2="572.3"/>
						
							<line fill="none" stroke="#000000" stroke-linejoin="round" stroke-miterlimit="10" x1="92.1" y1="-19.1" x2="715.9" y2="521.7"/>
						
							<line fill="none" stroke="#000000" stroke-linejoin="round" stroke-miterlimit="10" x1="113.7" y1="-36.4" x2="737.5" y2="504.3"/>
					</g>
				</g>
				
					<use xlink:href="#XMLID_1_"  overflow="visible" fill="none" stroke="#000000" stroke-linejoin="round" stroke-miterlimit="10"/>
			</g>
		</g>
	</g>
</g>
<g id="Carriage" display="none">
</g>
<g id="Engine" display="none">
	<g id="Wheels" display="inline">
	</g>
</g>
</svg>
