<?xml version="1.0" encoding="utf-8"?>
<!-- Generator: Adobe Illustrator 17.1.0, SVG Export Plug-In . SVG Version: 6.00 Build 0)  -->
<!DOCTYPE svg PUBLIC "-//W3C//DTD SVG 1.1//EN" "http://www.w3.org/Graphics/SVG/1.1/DTD/svg11.dtd">
<svg version="1.1" xmlns="http://www.w3.org/2000/svg" xmlns:xlink="http://www.w3.org/1999/xlink" x="0px" y="0px"
	 viewBox="0 0 2767.7 233.1" enable-background="new 0 0 2767.7 233.1" xml:space="preserve">
<g id="Guides" display="none">
</g>
<g id="Guide" display="none">
	
		<image display="inline" overflow="visible" width="3264" height="2448" xlink:href="2ADD9384.jpg"  transform="matrix(0.3266 0 0 0.3266 -586.9077 -229.9986)">
	</image>
</g>
<g id="Sky" display="none">
	<rect x="-1866.9" y="-230.5" display="inline" fill="#BDCCD4" width="6400" height="801"/>
</g>
<g id="Ground" display="none">
	<rect x="-1866.9" y="232.5" display="inline" fill="#918377" width="6400" height="142"/>
</g>
<g id="Layer_5" display="none">
</g>
<g id="Layer_2">
	<g display="none">
		<rect x="-197.9" y="-231" display="inline" fill="none" width="1280" height="800"/>
	</g>
	<g display="none">
		<rect x="2002.1" y="-230" display="inline" fill="none" width="1280" height="800"/>
	</g>
	<g>
		<path display="none" fill="#03160C" d="M-327.3,232.9C-295.4,194.6-217.6,9-21.2,18.3c196.4,9.3,167.5,158.9,545.4,157.8
			C902,175.1,878.8,9.4,1076.1,0.3c199.5-9.2,305.3,203,462.3,201.3c157-1.6,265.7-102.4,494-178.9
			c228.2-76.5,408.2,210.2,408.2,210.2l-903.7,0.2L-327.3,232.9z"/>
		<path fill="#01160B" d="M0,232.9C31.8,194.6,109.7,9,306,18.3c196.4,9.3,167.5,158.9,545.4,157.8c377.9-1,354.7-166.8,551.9-175.9
			c199.5-9.2,305.3,203,462.3,201.3c157-1.6,265.7-102.4,494-178.9c228.2-76.5,408.2,210.2,408.2,210.2l-903.7,0.2L0,232.9z"/>
		<path display="none" fill="#01160B" d="M5511.6,232.9C5479.8,194.6,5402,9,5205.6,18.3c-196.4,9.3-167.5,158.9-545.4,157.8
			c-377.9-1-354.7-166.8-551.9-175.9c-199.5-9.2-305.3,203-462.3,201.3c-157-1.6-265.7-102.4-494-178.9
			c-228.2-76.5-408.2,210.2-408.2,210.2l903.7,0.2L5511.6,232.9z"/>
		<path display="none" fill="none" stroke="#000000" stroke-miterlimit="10" d="M-327.3,232.9C-295.4,194.6-217.6,9-21.2,18.3
			c196.4,9.3,167.5,158.9,545.4,157.8C902,175.1,878.8,9.4,1076.1,0.3c199.5-9.2,305.3,203,462.3,201.3
			c157-1.6,265.7-102.4,494-178.9c228.2-76.5,408.2,210.2,408.2,210.2l-903.7,0.2L-327.3,232.9z"/>
		<path display="none" fill="#021E0F" d="M308.7,222C335.5,189,401,28.8,566.2,36.8c165.2,8,140.9,137.1,458.8,136.2
			c317.9-0.9,298.4-143.9,464.3-151.8c167.8-7.9,256.8,175.2,388.9,173.8c132.1-1.4,223.6-88.4,415.5-154.4
			C2485.6-25.4,2637,222,2637,222l-760.2,0.1L308.7,222z"/>
		<path display="none" fill="#021E0F" d="M-2211.1,222c26.8-33,92.3-193.2,257.4-185.2c165.2,8,140.9,137.1,458.8,136.2
			c317.9-0.9,298.4-143.9,464.3-151.8c167.8-7.9,256.8,175.2,388.9,173.8c132.1-1.4,223.6-88.4,415.5-154.4
			c192-66,343.3,181.4,343.3,181.4l-760.2,0.1L-2211.1,222z"/>
		<path display="none" fill="#021E0F" d="M4970.3,222c-26.8-33-289.1-184.9-454.2-176.9c-165.2,8-271.5,134.5-370.6,127.5
			c-209.9-15-189.8-143.5-355.7-151.3C3622,13.3,3533,196.4,3401,195c-132.1-1.4-223.6-88.4-415.5-154.4
			c-192-66-343.3,181.4-343.3,181.4l760.2,0.1L4970.3,222z"/>
		<path display="none" fill="none" stroke="#000000" stroke-miterlimit="10" d="M308.7,222C335.5,189,401,28.8,566.2,36.8
			c165.2,8,140.9,137.1,458.8,136.2c317.9-0.9,298.4-143.9,464.3-151.8c167.8-7.9,256.8,175.2,388.9,173.8
			c132.1-1.4,223.6-88.4,415.5-154.4C2485.6-25.4,2637,222,2637,222l-760.2,0.1L308.7,222z"/>
		<rect x="693.1" y="-230" display="none" fill="none" width="1280" height="800"/>
		<path display="none" fill="#132B1E" d="M810.2,195.5c168,15.2,105-101.7,312-95.8c207,5.9,79.5,94.7,333,104
			c253.5,9.3,220.5-108.7,429-109.8c208.5-1.2,250.5,127.4,427.5,126.2c177-1.2,214.5-119.2,406.5-120.4
			c118.3-0.7,280,103.2,348.2,106.8c126.7,6.6,345.6-100,697.4-114.1c216.3-8.6,382,142.8,518.3,121.5
			c114.1-17.8,331.3,0.4,348.2,34.6l-4387-3.9c0,0-32.4-176.9,181-177.8C637.7,65.8,642.2,180.3,810.2,195.5"/>
		<path display="none" fill="#132B1E" d="M-1679.1,195.5c168,15.2,105-101.7,312-95.8c207,5.9,79.5,94.7,333,104
			C-780.6,213-813.6,95-605.1,93.8c208.5-1.2,250.5,127.4,427.5,126.2c177-1.2,214.5-119.2,406.5-120.4
			c118.3-0.7,280,103.2,348.2,106.8c126.7,6.6,345.6-100,697.4-114.1c216.3-8.6,382,142.8,518.3,121.5
			c114.1-17.8,331.3,0.4,348.2,34.6l-4387-3.9c0,0-32.4-176.9,181-177.8C-1851.5,65.8-1847,180.3-1679.1,195.5"/>
		<path display="none" fill="#132B1E" d="M-2549.1,195.5c168,15.2,105-101.7,312-95.8c207,5.9,79.5,94.7,333,104
			c253.5,9.3,220.5-108.7,429-109.8c208.5-1.2,250.5,127.4,427.5,126.2c177-1.2,214.5-119.2,406.5-120.4
			c118.3-0.7,280,103.2,348.2,106.8c126.7,6.6,345.6-100,697.4-114.1c216.3-8.6,382,142.8,518.3,121.5
			c114.1-17.8,331.3,0.4,348.2,34.6l-4387-3.9c0,0-32.4-176.9,181-177.8C-2721.6,65.8-2717.1,180.3-2549.1,195.5"/>
	</g>
	<rect x="693.1" y="-230" display="none" fill="none" width="1280" height="800"/>
	<g display="none">
		<rect x="693.1" y="-230" display="inline" fill="none" width="1280" height="800"/>
	</g>
</g>
<g id="Layer_7" display="none">
	<path display="inline" fill="#999999" stroke="#000000" stroke-miterlimit="10" d="M68.1,251L67.7-14.9l-92.7,40.7l0.5,270.3h0.5
		c0-0.9,0-0.5,0-0.5c0-34,10.2-93,45.7-100c32.4-6.4,46.2,11,45.6,31.9L68.1,251z M60.6,69.2l-79,22.3V31.9l79-22.3V69.2z"/>
	<polygon display="inline" fill="#666666" stroke="#000000" stroke-miterlimit="10" points="166.8,91 238.6,58.6 283.6,117 
		166.1,185.5 	"/>
	<path display="inline" fill="#808080" stroke="#000000" stroke-miterlimit="10" d="M67.9-12.6l-0.3-46V349h99V14.1L67.9-12.6z
		 M161.6,88.1l-87-18.5l-1-57.3l87,18.5L161.6,88.1z"/>
	<path display="inline" fill="#999999" stroke="#000000" stroke-miterlimit="10" d="M166.7,14.1L68.1,45l-0.5,140.5l-0.1,41.9
		c0-1,11.8-42.7,50.1-49.7c34.8-6.4,49.9,15.8,48.1,57.1 M160.6,84.6l-86,25.9V50.9l86-25.9V84.6z"/>
	<polygon display="inline" fill="#B3B3B3" stroke="#000000" stroke-miterlimit="10" points="166.7,349.3 287.3,244.8 283.6,117 
		166.1,185.5 	"/>
	<polygon display="inline" fill="#666666" stroke="#000000" stroke-miterlimit="10" points="-24.9,23.5 74.1,-98.5 166.7,14.1 
		68.1,44.5 	"/>
	<g id="Layer_4" display="inline">
		<polygon fill="#4D4D4D" stroke="#000000" stroke-miterlimit="10" points="199.6,265.6 175.6,283.5 176,201.8 199.6,187 		"/>
		<polygon fill="#4D4D4D" stroke="#000000" stroke-miterlimit="10" points="228.6,245.5 208.6,258.8 208.6,182.2 228.6,169 		"/>
		<polygon fill="#4D4D4D" stroke="#000000" stroke-miterlimit="10" points="256.6,226.9 238.6,240.2 238.6,164 256.6,152 		"/>
		<polygon fill="#4D4D4D" stroke="#000000" stroke-miterlimit="10" points="278.6,213.2 263.6,223.5 263.6,148.3 278.6,138 		"/>
	</g>
	<g display="inline">
		<g>
			
				<image overflow="visible" width="594" height="232" xlink:href="2ADD9384.png"  transform="matrix(0.7547 0 0 0.7547 1248.7144 185.5014)">
			</image>
		</g>
	</g>
	<path display="inline" fill="#808080" stroke="#000000" stroke-miterlimit="10" d="M-25.2,24h-0.3l1,363.5l92,39v-382L-25.2,24z
		 M60.6,110.6l-79-16.1V34.9l79,16.1V110.6z"/>
	<polygon display="inline" fill="#4D4D4D" stroke="#000000" stroke-miterlimit="10" points="1.6,128.6 67.5,227.4 -134.4,345.5 
		-217.2,227.4 	"/>
	<polyline display="inline" fill="#999999" stroke="#000000" stroke-miterlimit="10" points="-134.4,345.5 67.5,227.4 67.6,426.5 
		-134.4,570 -134.4,345.5 	"/>
	<path display="inline" fill="none" stroke="#000000" stroke-miterlimit="10" d="M67.5,227.4c0,0,9.6-30.1,30.1-41.9"/>
	<path display="inline" fill="#999999" d="M68,180.8l0.1,43.3c8-20.5,21.8-42.3,50.4-47.3c34.9-6.1-48.1-33.6-49.9,7.8"/>
</g>
<g id="Layer_12" display="none">
</g>
<g id="Layer_8" display="none">
</g>
<g id="Layer_9" display="none">
</g>
<g id="Layer_10" display="none">
</g>
</svg>
