<?xml version="1.0" encoding="utf-8"?>
<!-- Generator: Adobe Illustrator 17.1.0, SVG Export Plug-In . SVG Version: 6.00 Build 0)  -->
<!DOCTYPE svg PUBLIC "-//W3C//DTD SVG 1.1//EN" "http://www.w3.org/Graphics/SVG/1.1/DTD/svg11.dtd">
<svg version="1.1" xmlns="http://www.w3.org/2000/svg" xmlns:xlink="http://www.w3.org/1999/xlink" x="0px" y="0px"
	 viewBox="0 0 5932.8 319.4" enable-background="new 0 0 5932.8 319.4" xml:space="preserve">
<g id="Guides" display="none">
</g>
<g id="Guide" display="none">
	
		<image display="inline" overflow="visible" width="3264" height="2448" xlink:href="B45FEE9E.jpg"  transform="matrix(0.3266 0 0 0.3266 74.2393 -132.7142)">
	</image>
	
		<image display="inline" overflow="visible" width="3264" height="2448" xlink:href="B45FEE99.jpg"  transform="matrix(0.3361 0 0 0.3361 4097.2939 -247.3036)">
	</image>
</g>
<g id="Sky" display="none">
	<rect x="-1205.8" y="-133.2" display="inline" fill="#BDCCD4" width="6400" height="801"/>
</g>
<g id="Ground" display="none">
</g>
<g id="Layer_5" display="none">
</g>
<g id="Layer_2">
	<g display="none">
		<rect x="463.2" y="-133.7" display="inline" fill="none" width="1280" height="800"/>
	</g>
	<g display="none">
		<rect x="3972.2" y="-132.7" display="inline" fill="none" width="1280" height="800"/>
	</g>
	<g display="none">
		<rect x="2663.2" y="-132.7" display="inline" fill="none" width="1280" height="800"/>
	</g>
	<g>
		<path display="none" fill="#01160B" d="M6172.8,330.2c-31.8-38.3-109.7-223.9-306-214.6c-196.4,9.3-167.5,158.9-545.4,157.8
			c-377.9-1-354.7-166.8-551.9-175.9c-199.5-9.2-305.3,203-462.3,201.3c-157-1.6-265.7-102.4-494-178.9
			c-228.2-76.5-408.2,210.2-408.2,210.2l903.7,0.2L6172.8,330.2z"/>
		<path fill="#021E0F" d="M5932.8,319.4C5906,274,5606.1,67.5,5440.9,78.6c-165.2,11-524.9,141.6-623.9,131.9
			c-209.9-20.6-370-135.9-535.9-146.7c-167.8-10.9-609.8,140.3-741.8,138.4c-132.1-1.9-246-140.2-527.9-148.4
			S2737,173.5,2141.6,159.7c-246-5.7-388-157.1-645.9-159.7c-255.9-2.6-447.8,158.1-667.9,159.7C392.2,162.9,503.9-9.1,251.9,43
			S0,319.4,0,319.4h4063.5H5932.8z"/>
		<path display="none" fill="#132B1E" d="M-637,279c168,19.2,105-128.3,312-120.9c207,7.4,67.6,86.6,321.1,98.4
			c253.5,11.8,232.4-104.2,440.9-105.7c208.5-1.5,238.6,127.8,415.6,126.3c177-1.5,226.4-117.6,418.4-119
			c118.3-0.9,268.1,97.4,336.4,101.8c126.7,8.3,357.5-93.4,709.3-111c216.3-10.9,496.9,91.3,634.7,98.9
			c146.3,8.1,157.7-94.2,364-91.2c205.5,3.1,128.7,106.2,392,111c215.8,3.9,231.8-156.4,416-151c133.2,3.9,390.2,129.6,608,129.6
			c140,0,373.7-153.8,463-129.7c95.6,25.8,347.5,225.5,349,229.3l-6747.2-4.9c0,0-32.4-223,181-224.2
			C-809.5,115.4-805,259.8-637,279"/>
	</g>
	<rect x="1354.2" y="-132.7" display="none" fill="none" width="1280" height="800"/>
	<g display="none">
		<rect x="1354.2" y="-132.7" display="inline" fill="none" width="1280" height="800"/>
	</g>
</g>
<g id="Layer_7" display="none">
	<path display="inline" fill="#999999" stroke="#000000" stroke-miterlimit="10" d="M729.2,348.3l-0.4-265.9L636.2,123l0.5,270.3
		h0.5c0-0.9,0-0.5,0-0.5c0-34,10.2-93,45.7-100c32.4-6.4,46.2,11,45.6,31.9L729.2,348.3z M721.7,166.5l-79,22.3v-59.6l79-22.3V166.5
		z"/>
	<polygon display="inline" fill="#666666" stroke="#000000" stroke-miterlimit="10" points="828,188.3 899.7,155.9 944.7,214.3 
		827.2,282.8 	"/>
	<path display="inline" fill="#808080" stroke="#000000" stroke-miterlimit="10" d="M729,84.7l-0.3-46v407.6h99V111.4L729,84.7z
		 M822.7,185.3l-87-18.5l-1-57.3l87,18.5L822.7,185.3z"/>
	<path display="inline" fill="#999999" stroke="#000000" stroke-miterlimit="10" d="M827.9,111.4l-98.6,30.9l-0.5,140.5l-0.1,41.9
		c0-1,11.8-42.7,50.1-49.7c34.8-6.4,49.9,15.8,48.1,57.1 M821.7,181.9l-86,25.9v-59.6l86-25.9V181.9z"/>
	<polygon display="inline" fill="#B3B3B3" stroke="#000000" stroke-miterlimit="10" points="827.9,446.5 948.5,342.1 944.7,214.3 
		827.2,282.8 	"/>
	<polygon display="inline" fill="#666666" stroke="#000000" stroke-miterlimit="10" points="636.2,120.8 735.2,-1.2 827.9,111.4 
		729.2,141.8 	"/>
	<g id="Layer_4" display="inline">
		<polygon fill="#4D4D4D" stroke="#000000" stroke-miterlimit="10" points="860.7,362.9 836.7,380.8 837.2,299.1 860.7,284.3 		"/>
		<polygon fill="#4D4D4D" stroke="#000000" stroke-miterlimit="10" points="889.7,342.8 869.7,356 869.7,279.5 889.7,266.3 		"/>
		<polygon fill="#4D4D4D" stroke="#000000" stroke-miterlimit="10" points="917.7,324.2 899.7,337.5 899.7,261.3 917.7,249.3 		"/>
		<polygon fill="#4D4D4D" stroke="#000000" stroke-miterlimit="10" points="939.7,310.5 924.7,320.8 924.7,245.6 939.7,235.3 		"/>
	</g>
	<g display="inline">
		<g>
			
				<image overflow="visible" width="594" height="232" xlink:href="B45FEE9A.png"  transform="matrix(0.7547 0 0 0.7547 1909.8615 282.7858)">
			</image>
			<rect x="3748.1" y="282.8" fill="none" width="448.3" height="175.1"/>
		</g>
		<rect x="3748.1" y="282.8" fill="none" width="448.3" height="175.1"/>
	</g>
	<path display="inline" fill="#808080" stroke="#000000" stroke-miterlimit="10" d="M636,121.3h-0.3l1,363.5l92,39v-382L636,121.3z
		 M721.7,207.9l-79-16.1v-59.6l79,16.1V207.9z"/>
	<polygon display="inline" fill="#4D4D4D" stroke="#000000" stroke-miterlimit="10" points="662.7,225.9 728.6,324.7 526.7,442.8 
		444,324.7 	"/>
	<path display="inline" fill="none" stroke="#000000" stroke-miterlimit="10" d="M728.6,324.7c0,0,9.6-30.1,30.1-41.9"/>
	<path display="inline" fill="#999999" d="M729.1,278l0.1,43.3c8-20.5,21.8-42.3,50.4-47.3c34.9-6.1-48.1-33.6-49.9,7.8"/>
</g>
<g id="Layer_12" display="none">
	<path display="inline" fill="#E6E6E6" d="M1629.6,24c0,9.1-8.4,17-20.4,20.1c0,0,0,0-0.1,0c-18.1,5.8-52.5,9.8-92,9.8
		c-32.4,0-61.3-2.7-80.7-6.8c-20.4-2.1-36-13.9-36-28.2c0-15.8,19-28.6,42.5-28.6c2.9,0,5.8,0.2,8.5,0.6
		c0.8-16.5,20.9-29.7,45.6-29.7c22.6,0,41.3,11,45,25.5c3.5-0.7,7.3-1,11.2-1c17.2,0,31.9,7.1,38.1,17.1c1.9-0.2,3.9-0.4,6-0.4
		C1615.2,2.3,1629.6,12,1629.6,24z"/>
	<path display="inline" fill="#E6E6E6" d="M2791.6,9c0,9.1-8.4,17-20.3,20.1c0,0,0,0-0.1,0c-18.1,5.8-52.5,9.8-92,9.8
		c-32.4,0-61.3-2.7-80.7-6.8c-20.4-2.1-36-13.9-36-28.2c0-15.8,19-28.6,42.5-28.6c2.9,0,5.8,0.2,8.5,0.6
		c0.8-16.5,20.9-29.7,45.7-29.7c22.6,0,41.3,11,45,25.5c3.5-0.7,7.3-1,11.2-1c17.2,0,31.9,7.1,38.1,17.1c1.9-0.2,3.9-0.4,6-0.4
		C2777.2-12.7,2791.6-3,2791.6,9z"/>
	<path display="inline" fill="#E6E6E6" d="M3640.6-13c0,9.1-8.4,17-20.3,20.1c0,0,0,0-0.1,0c-18.1,5.8-52.5,9.8-92,9.8
		c-32.4,0-61.3-2.7-80.7-6.8c-20.4-2.1-36-13.9-36-28.2c0-15.8,19-28.6,42.5-28.6c2.9,0,5.8,0.2,8.5,0.6
		c0.8-16.5,20.9-29.7,45.7-29.7c22.6,0,41.3,11,45,25.5c3.5-0.7,7.3-1,11.2-1c17.2,0,31.9,7.1,38.1,17.1c1.9-0.2,3.9-0.4,6-0.4
		C3626.2-34.7,3640.6-25,3640.6-13z"/>
	<path display="inline" fill="#E6E6E6" d="M4172.6,10c0,9.1-8.4,17-20.3,20.1c0,0,0,0-0.1,0c-18.1,5.8-52.5,9.8-92,9.8
		c-32.4,0-61.3-2.7-80.7-6.8c-20.4-2.1-36-13.9-36-28.2c0-15.8,19-28.6,42.5-28.6c2.9,0,5.8,0.2,8.5,0.6
		c0.8-16.5,20.9-29.7,45.7-29.7c22.6,0,41.3,11,45,25.5c3.5-0.7,7.3-1,11.2-1c17.2,0,31.9,7.1,38.1,17.1c1.9-0.2,3.9-0.4,6-0.4
		C4158.2-11.7,4172.6-2,4172.6,10z"/>
	<path display="inline" fill="#E6E6E6" d="M4955.6-1c0,9.1-8.4,17-20.3,20.1c0,0,0,0-0.1,0c-18.1,5.8-52.5,9.8-92,9.8
		c-32.4,0-61.3-2.7-80.7-6.8c-20.4-2.1-36-13.9-36-28.2c0-15.8,19-28.6,42.5-28.6c2.9,0,5.8,0.2,8.5,0.6
		c0.8-16.5,20.9-29.7,45.7-29.7c22.6,0,41.3,11,45,25.5c3.5-0.7,7.3-1,11.2-1c17.2,0,31.9,7.1,38.1,17.1c1.9-0.2,3.9-0.4,6-0.4
		C4941.2-22.7,4955.6-13,4955.6-1z"/>
	<path display="inline" fill="#E6E6E6" d="M2248.6,22c0,9.1-8.4,17-20.3,20.1c0,0,0,0-0.1,0c-18.1,5.8-52.5,9.8-92,9.8
		c-32.4,0-61.3-2.7-80.7-6.8c-20.4-2.1-36-13.9-36-28.2c0-15.8,19-28.6,42.5-28.6c2.9,0,5.8,0.2,8.5,0.6
		c0.8-16.5,20.9-29.7,45.7-29.7c22.6,0,41.3,11,45,25.5c3.5-0.7,7.3-1,11.2-1c17.2,0,31.9,7.1,38.1,17.1c1.9-0.2,3.9-0.4,6-0.4
		C2234.2,0.3,2248.6,10,2248.6,22z"/>
	<path display="inline" fill="#E6E6E6" d="M236.6,24c0,9.1,9.2,17,22.2,20.1c0,0,0,0,0.1,0c19.8,5.8,57.3,9.8,100.3,9.8
		c35.3,0,66.8-2.7,88-6.8c22.2-2.1,39.2-13.9,39.2-28.2C486.3,3,465.6-9.7,440-9.7c-3.2,0-6.3,0.2-9.3,0.6
		c-0.9-16.5-22.8-29.7-49.8-29.7c-24.6,0-45,11-49,25.5c-3.9-0.7-8-1-12.2-1c-18.7,0-34.8,7.1-41.5,17.1c-2.1-0.2-4.3-0.4-6.5-0.4
		C252.4,2.3,236.6,12,236.6,24z"/>
</g>
<g id="Layer_8" display="none">
	<polygon display="inline" fill="#999999" stroke="#000000" stroke-miterlimit="10" points="4858.7,271 4858.7,335.4 5042.6,360.6 
		5041.2,288.2 4927.2,200.2 	"/>
	<polygon display="inline" fill="#808080" stroke="#000000" stroke-miterlimit="10" points="5042.5,360.6 5373.7,332.9 
		5373.7,263.7 5041,288.2 	"/>
	<polygon display="inline" fill="#4D4D4D" stroke="#000000" stroke-miterlimit="10" points="4927.2,200.2 5290.7,174.8 
		5374.1,263.7 5041.2,288.2 	"/>
	<polygon display="inline" fill="#999999" stroke="#000000" stroke-miterlimit="10" points="4290.7,309.8 4290.7,380.8 
		4493.4,408.6 4491.9,328.8 4366.2,231.8 	"/>
	<polygon display="inline" fill="#808080" stroke="#000000" stroke-miterlimit="10" points="4493.4,408.6 4858.7,378.1 
		4858.7,301.8 4491.9,328.8 	"/>
	<polygon display="inline" fill="#4D4D4D" stroke="#000000" stroke-miterlimit="10" points="4366.2,231.8 4766.9,203.8 
		4858.7,301.8 4491.9,328.8 	"/>
	<polygon display="inline" fill="#999999" stroke="#000000" stroke-miterlimit="10" points="4675.7,358.8 4675.7,429.8 
		4878.4,457.6 4876.9,377.8 4751.2,280.8 	"/>
	<polygon display="inline" fill="#4D4D4D" stroke="#000000" stroke-miterlimit="10" points="4751.2,280.8 5151.9,252.8 
		5243.7,350.8 4876.9,377.8 	"/>
</g>
<g id="Layer_9" display="none">
	
		<polyline display="inline" fill="none" stroke="#000000" stroke-width="8" stroke-linejoin="round" stroke-miterlimit="10" points="
		5151.2,456.8 5151.2,37.8 5213.4,-17.5 	"/>
	
		<polyline display="inline" fill="none" stroke="#000000" stroke-width="8" stroke-linejoin="round" stroke-miterlimit="10" points="
		5020.2,456.8 5020.2,37.8 5082.4,-17.5 	"/>
	
		<polyline display="inline" fill="none" stroke="#000000" stroke-width="8" stroke-linejoin="round" stroke-miterlimit="10" points="
		4888.2,456.8 4888.2,37.8 4950.4,-17.5 	"/>
	
		<polyline display="inline" fill="none" stroke="#000000" stroke-width="8" stroke-linejoin="round" stroke-miterlimit="10" points="
		4757.2,456.8 4757.2,37.8 4819.4,-17.5 	"/>
	
		<polyline display="inline" fill="none" stroke="#000000" stroke-width="8" stroke-linejoin="round" stroke-miterlimit="10" points="
		4626.2,456.8 4626.2,37.8 4688.4,-17.5 	"/>
	
		<polyline display="inline" fill="none" stroke="#000000" stroke-width="8" stroke-linejoin="round" stroke-miterlimit="10" points="
		4495.2,456.8 4495.2,37.8 4557.4,-17.5 	"/>
	
		<polyline display="inline" fill="none" stroke="#000000" stroke-width="8" stroke-linejoin="round" stroke-miterlimit="10" points="
		4363.2,456.8 4363.2,37.8 4425.4,-17.5 	"/>
	
		<polyline display="inline" fill="none" stroke="#000000" stroke-width="8" stroke-linejoin="round" stroke-miterlimit="10" points="
		4232.2,456.8 4232.2,37.8 4294.4,-17.5 	"/>
</g>
<g id="Layer_10" display="none">
	
		<line display="inline" fill="none" stroke="#000000" stroke-linejoin="round" stroke-miterlimit="10" x1="4269.2" y1="5.3" x2="5235.2" y2="5.3"/>
	
		<line display="inline" fill="none" stroke="#000000" stroke-linejoin="round" stroke-miterlimit="10" x1="4262.2" y1="12.3" x2="5220.2" y2="12.3"/>
	
		<line display="inline" fill="none" stroke="#000000" stroke-linejoin="round" stroke-miterlimit="10" x1="4254.2" y1="18.3" x2="5216.2" y2="18.3"/>
	
		<line display="inline" fill="none" stroke="#000000" stroke-linejoin="round" stroke-miterlimit="10" x1="5207.2" y1="25.3" x2="4245.2" y2="25.3"/>
	
		<line display="inline" fill="none" stroke="#000000" stroke-linejoin="round" stroke-miterlimit="10" x1="4240.2" y1="31.3" x2="5201.2" y2="31.3"/>
	
		<line display="inline" fill="none" stroke="#000000" stroke-linejoin="round" stroke-miterlimit="10" x1="4232.2" y1="38.3" x2="5151.2" y2="38.3"/>
	<g display="inline">
		<defs>
			<rect id="XMLID_1_" x="4231.7" y="38.3" width="968" height="419"/>
		</defs>
		<clipPath id="XMLID_3_">
			<use xlink:href="#XMLID_1_"  overflow="visible"/>
		</clipPath>
		<g clip-path="url(#XMLID_3_)">
			
				<line fill="none" stroke="#000000" stroke-linejoin="round" stroke-miterlimit="10" x1="4462.3" y1="-166.6" x2="3755.9" y2="513.7"/>
			
				<line fill="none" stroke="#000000" stroke-linejoin="round" stroke-miterlimit="10" x1="5414.3" y1="228.4" x2="4707.9" y2="908.7"/>
			<g>
				
					<line fill="none" stroke="#000000" stroke-linejoin="round" stroke-miterlimit="10" x1="4957.5" y1="-107.7" x2="4251.1" y2="572.6"/>
				
					<line fill="none" stroke="#000000" stroke-linejoin="round" stroke-miterlimit="10" x1="4788.9" y1="-282.7" x2="4082.5" y2="397.6"/>
				
					<line fill="none" stroke="#000000" stroke-linejoin="round" stroke-miterlimit="10" x1="4704.3" y1="-370.6" x2="3997.9" y2="309.7"/>
				
					<line fill="none" stroke="#000000" stroke-linejoin="round" stroke-miterlimit="10" x1="4738.3" y1="-335.3" x2="4031.9" y2="345"/>
				
					<line fill="none" stroke="#000000" stroke-linejoin="round" stroke-miterlimit="10" x1="4771.6" y1="-300.7" x2="4065.2" y2="379.6"/>
				
					<line fill="none" stroke="#000000" stroke-linejoin="round" stroke-miterlimit="10" x1="4720.9" y1="-353.3" x2="4014.6" y2="327"/>
				
					<line fill="none" stroke="#000000" stroke-linejoin="round" stroke-miterlimit="10" x1="4754.9" y1="-318" x2="4048.6" y2="362.3"/>
				
					<line fill="none" stroke="#000000" stroke-linejoin="round" stroke-miterlimit="10" x1="4805.5" y1="-265.4" x2="4099.2" y2="414.9"/>
				
					<line fill="none" stroke="#000000" stroke-linejoin="round" stroke-miterlimit="10" x1="4822.2" y1="-248.1" x2="4115.8" y2="432.1"/>
				
					<line fill="none" stroke="#000000" stroke-linejoin="round" stroke-miterlimit="10" x1="4856.2" y1="-212.8" x2="4149.8" y2="467.4"/>
				
					<line fill="none" stroke="#000000" stroke-linejoin="round" stroke-miterlimit="10" x1="4839.5" y1="-230.1" x2="4133.2" y2="450.2"/>
				
					<line fill="none" stroke="#000000" stroke-linejoin="round" stroke-miterlimit="10" x1="4872.8" y1="-195.5" x2="4166.5" y2="484.7"/>
				
					<line fill="none" stroke="#000000" stroke-linejoin="round" stroke-miterlimit="10" x1="4906.8" y1="-160.2" x2="4200.5" y2="520"/>
				
					<line fill="none" stroke="#000000" stroke-linejoin="round" stroke-miterlimit="10" x1="4890.2" y1="-177.5" x2="4183.8" y2="502.7"/>
				
					<line fill="none" stroke="#000000" stroke-linejoin="round" stroke-miterlimit="10" x1="4940.8" y1="-125" x2="4234.5" y2="555.3"/>
				
					<line fill="none" stroke="#000000" stroke-linejoin="round" stroke-miterlimit="10" x1="5008.1" y1="-55.1" x2="4301.8" y2="625.2"/>
				
					<line fill="none" stroke="#000000" stroke-linejoin="round" stroke-miterlimit="10" x1="4923.5" y1="-143" x2="4217.1" y2="537.3"/>
				
					<line fill="none" stroke="#000000" stroke-linejoin="round" stroke-miterlimit="10" x1="4974.1" y1="-90.4" x2="4267.8" y2="589.9"/>
				
					<line fill="none" stroke="#000000" stroke-linejoin="round" stroke-miterlimit="10" x1="4991.5" y1="-72.4" x2="4285.1" y2="607.9"/>
			</g>
			<g>
				
					<line fill="none" stroke="#000000" stroke-linejoin="round" stroke-miterlimit="10" x1="5414.5" y1="93.3" x2="4708.1" y2="773.6"/>
				
					<line fill="none" stroke="#000000" stroke-linejoin="round" stroke-miterlimit="10" x1="5245.9" y1="-81.7" x2="4539.5" y2="598.6"/>
				
					<line fill="none" stroke="#000000" stroke-linejoin="round" stroke-miterlimit="10" x1="5161.3" y1="-169.6" x2="4454.9" y2="510.7"/>
				
					<line fill="none" stroke="#000000" stroke-linejoin="round" stroke-miterlimit="10" x1="5195.3" y1="-134.3" x2="4488.9" y2="546"/>
				
					<line fill="none" stroke="#000000" stroke-linejoin="round" stroke-miterlimit="10" x1="5228.6" y1="-99.7" x2="4522.2" y2="580.6"/>
				
					<line fill="none" stroke="#000000" stroke-linejoin="round" stroke-miterlimit="10" x1="5177.9" y1="-152.3" x2="4471.6" y2="528"/>
				
					<line fill="none" stroke="#000000" stroke-linejoin="round" stroke-miterlimit="10" x1="5211.9" y1="-117" x2="4505.6" y2="563.3"/>
				
					<line fill="none" stroke="#000000" stroke-linejoin="round" stroke-miterlimit="10" x1="5262.5" y1="-64.4" x2="4556.2" y2="615.9"/>
				
					<line fill="none" stroke="#000000" stroke-linejoin="round" stroke-miterlimit="10" x1="5279.2" y1="-47.1" x2="4572.8" y2="633.1"/>
				
					<line fill="none" stroke="#000000" stroke-linejoin="round" stroke-miterlimit="10" x1="5313.2" y1="-11.8" x2="4606.8" y2="668.4"/>
				
					<line fill="none" stroke="#000000" stroke-linejoin="round" stroke-miterlimit="10" x1="5296.5" y1="-29.1" x2="4590.2" y2="651.2"/>
				
					<line fill="none" stroke="#000000" stroke-linejoin="round" stroke-miterlimit="10" x1="5329.8" y1="5.5" x2="4623.5" y2="685.7"/>
				
					<line fill="none" stroke="#000000" stroke-linejoin="round" stroke-miterlimit="10" x1="5363.8" y1="40.8" x2="4657.5" y2="721"/>
				
					<line fill="none" stroke="#000000" stroke-linejoin="round" stroke-miterlimit="10" x1="5347.2" y1="23.5" x2="4640.8" y2="703.7"/>
				
					<line fill="none" stroke="#000000" stroke-linejoin="round" stroke-miterlimit="10" x1="5397.8" y1="76" x2="4691.5" y2="756.3"/>
				
					<line fill="none" stroke="#000000" stroke-linejoin="round" stroke-miterlimit="10" x1="5465.1" y1="145.9" x2="4758.8" y2="826.2"/>
				
					<line fill="none" stroke="#000000" stroke-linejoin="round" stroke-miterlimit="10" x1="5380.5" y1="58" x2="4674.1" y2="738.3"/>
				
					<line fill="none" stroke="#000000" stroke-linejoin="round" stroke-miterlimit="10" x1="5431.1" y1="110.6" x2="4724.8" y2="790.9"/>
				
					<line fill="none" stroke="#000000" stroke-linejoin="round" stroke-miterlimit="10" x1="5448.5" y1="128.6" x2="4742.1" y2="808.9"/>
			</g>
			<g>
				
					<line fill="none" stroke="#000000" stroke-linejoin="round" stroke-miterlimit="10" x1="4947" y1="-671.1" x2="5627.3" y2="35.2"/>
				
					<line fill="none" stroke="#000000" stroke-linejoin="round" stroke-miterlimit="10" x1="4772" y1="-502.6" x2="5452.3" y2="203.8"/>
				
					<line fill="none" stroke="#000000" stroke-linejoin="round" stroke-miterlimit="10" x1="4684.1" y1="-417.9" x2="5364.4" y2="288.4"/>
				
					<line fill="none" stroke="#000000" stroke-linejoin="round" stroke-miterlimit="10" x1="4719.4" y1="-451.9" x2="5399.7" y2="254.4"/>
				
					<line fill="none" stroke="#000000" stroke-linejoin="round" stroke-miterlimit="10" x1="4754" y1="-485.2" x2="5434.3" y2="221.1"/>
				
					<line fill="none" stroke="#000000" stroke-linejoin="round" stroke-miterlimit="10" x1="4701.4" y1="-434.6" x2="5381.7" y2="271.8"/>
				
					<line fill="none" stroke="#000000" stroke-linejoin="round" stroke-miterlimit="10" x1="4736.7" y1="-468.6" x2="5417" y2="237.8"/>
				
					<line fill="none" stroke="#000000" stroke-linejoin="round" stroke-miterlimit="10" x1="4789.3" y1="-519.2" x2="5469.6" y2="187.1"/>
				
					<line fill="none" stroke="#000000" stroke-linejoin="round" stroke-miterlimit="10" x1="4806.6" y1="-535.9" x2="5486.8" y2="170.5"/>
				
					<line fill="none" stroke="#000000" stroke-linejoin="round" stroke-miterlimit="10" x1="4841.9" y1="-569.9" x2="5522.1" y2="136.5"/>
				
					<line fill="none" stroke="#000000" stroke-linejoin="round" stroke-miterlimit="10" x1="4824.6" y1="-553.2" x2="5504.9" y2="153.1"/>
				
					<line fill="none" stroke="#000000" stroke-linejoin="round" stroke-miterlimit="10" x1="4859.2" y1="-586.5" x2="5539.4" y2="119.8"/>
				
					<line fill="none" stroke="#000000" stroke-linejoin="round" stroke-miterlimit="10" x1="4894.5" y1="-620.5" x2="5574.7" y2="85.8"/>
				
					<line fill="none" stroke="#000000" stroke-linejoin="round" stroke-miterlimit="10" x1="4877.2" y1="-603.9" x2="5557.4" y2="102.5"/>
				
					<line fill="none" stroke="#000000" stroke-linejoin="round" stroke-miterlimit="10" x1="4929.7" y1="-654.5" x2="5610" y2="51.9"/>
				
					<line fill="none" stroke="#000000" stroke-linejoin="round" stroke-miterlimit="10" x1="4911.7" y1="-637.2" x2="5592" y2="69.2"/>
				
					<line fill="none" stroke="#000000" stroke-linejoin="round" stroke-miterlimit="10" x1="4964.3" y1="-687.8" x2="5644.6" y2="18.6"/>
				
					<line fill="none" stroke="#000000" stroke-linejoin="round" stroke-miterlimit="10" x1="4982.3" y1="-705.1" x2="5662.6" y2="1.2"/>
			</g>
			<g>
				
					<line fill="none" stroke="#000000" stroke-linejoin="round" stroke-miterlimit="10" x1="4620" y1="-344.1" x2="5300.3" y2="362.2"/>
				
					<line fill="none" stroke="#000000" stroke-linejoin="round" stroke-miterlimit="10" x1="4445" y1="-175.6" x2="5125.3" y2="530.8"/>
				
					<line fill="none" stroke="#000000" stroke-linejoin="round" stroke-miterlimit="10" x1="4357.1" y1="-90.9" x2="5037.4" y2="615.4"/>
				
					<line fill="none" stroke="#000000" stroke-linejoin="round" stroke-miterlimit="10" x1="4392.4" y1="-124.9" x2="5072.7" y2="581.4"/>
				
					<line fill="none" stroke="#000000" stroke-linejoin="round" stroke-miterlimit="10" x1="4427" y1="-158.2" x2="5107.3" y2="548.1"/>
				
					<line fill="none" stroke="#000000" stroke-linejoin="round" stroke-miterlimit="10" x1="4374.4" y1="-107.6" x2="5054.7" y2="598.8"/>
				
					<line fill="none" stroke="#000000" stroke-linejoin="round" stroke-miterlimit="10" x1="4409.7" y1="-141.6" x2="5090" y2="564.8"/>
				
					<line fill="none" stroke="#000000" stroke-linejoin="round" stroke-miterlimit="10" x1="4462.3" y1="-192.2" x2="5142.6" y2="514.1"/>
				
					<line fill="none" stroke="#000000" stroke-linejoin="round" stroke-miterlimit="10" x1="4479.6" y1="-208.9" x2="5159.8" y2="497.5"/>
				
					<line fill="none" stroke="#000000" stroke-linejoin="round" stroke-miterlimit="10" x1="4514.9" y1="-242.9" x2="5195.1" y2="463.5"/>
				
					<line fill="none" stroke="#000000" stroke-linejoin="round" stroke-miterlimit="10" x1="4497.6" y1="-226.2" x2="5177.9" y2="480.1"/>
				
					<line fill="none" stroke="#000000" stroke-linejoin="round" stroke-miterlimit="10" x1="4532.2" y1="-259.5" x2="5212.4" y2="446.8"/>
				
					<line fill="none" stroke="#000000" stroke-linejoin="round" stroke-miterlimit="10" x1="4567.5" y1="-293.5" x2="5247.7" y2="412.8"/>
				
					<line fill="none" stroke="#000000" stroke-linejoin="round" stroke-miterlimit="10" x1="4550.2" y1="-276.9" x2="5230.4" y2="429.5"/>
				
					<line fill="none" stroke="#000000" stroke-linejoin="round" stroke-miterlimit="10" x1="4602.7" y1="-327.5" x2="5283" y2="378.9"/>
				
					<line fill="none" stroke="#000000" stroke-linejoin="round" stroke-miterlimit="10" x1="4672.6" y1="-394.8" x2="5352.9" y2="311.6"/>
				
					<line fill="none" stroke="#000000" stroke-linejoin="round" stroke-miterlimit="10" x1="4584.7" y1="-310.2" x2="5265" y2="396.2"/>
				
					<line fill="none" stroke="#000000" stroke-linejoin="round" stroke-miterlimit="10" x1="4637.3" y1="-360.8" x2="5317.6" y2="345.6"/>
				
					<line fill="none" stroke="#000000" stroke-linejoin="round" stroke-miterlimit="10" x1="4655.3" y1="-378.1" x2="5335.6" y2="328.2"/>
			</g>
			<g>
				
					<line fill="none" stroke="#000000" stroke-linejoin="round" stroke-miterlimit="10" x1="4288" y1="-23.1" x2="4808.8" y2="517.6"/>
				
					<line fill="none" stroke="#000000" stroke-linejoin="round" stroke-miterlimit="10" x1="4113" y1="145.4" x2="4633.8" y2="686.2"/>
				
					<line fill="none" stroke="#000000" stroke-linejoin="round" stroke-miterlimit="10" x1="4025.1" y1="230.1" x2="4545.9" y2="770.8"/>
				
					<line fill="none" stroke="#000000" stroke-linejoin="round" stroke-miterlimit="10" x1="4060.4" y1="196.1" x2="4581.2" y2="736.8"/>
				
					<line fill="none" stroke="#000000" stroke-linejoin="round" stroke-miterlimit="10" x1="4095" y1="162.8" x2="4615.8" y2="703.5"/>
				
					<line fill="none" stroke="#000000" stroke-linejoin="round" stroke-miterlimit="10" x1="4042.4" y1="213.4" x2="4563.2" y2="754.1"/>
				
					<line fill="none" stroke="#000000" stroke-linejoin="round" stroke-miterlimit="10" x1="4077.7" y1="179.4" x2="4598.5" y2="720.2"/>
				
					<line fill="none" stroke="#000000" stroke-linejoin="round" stroke-miterlimit="10" x1="4130.3" y1="128.8" x2="4651.1" y2="669.5"/>
				
					<line fill="none" stroke="#000000" stroke-linejoin="round" stroke-miterlimit="10" x1="4147.6" y1="112.1" x2="4668.4" y2="652.9"/>
				
					<line fill="none" stroke="#000000" stroke-linejoin="round" stroke-miterlimit="10" x1="4182.9" y1="78.1" x2="4703.7" y2="618.9"/>
				
					<line fill="none" stroke="#000000" stroke-linejoin="round" stroke-miterlimit="10" x1="4165.6" y1="94.8" x2="4686.4" y2="635.5"/>
				
					<line fill="none" stroke="#000000" stroke-linejoin="round" stroke-miterlimit="10" x1="4200.2" y1="61.5" x2="4720.9" y2="602.2"/>
				
					<line fill="none" stroke="#000000" stroke-linejoin="round" stroke-miterlimit="10" x1="4235.5" y1="27.5" x2="4756.2" y2="568.2"/>
				
					<line fill="none" stroke="#000000" stroke-linejoin="round" stroke-miterlimit="10" x1="4218.2" y1="44.1" x2="4738.9" y2="584.9"/>
				
					<line fill="none" stroke="#000000" stroke-linejoin="round" stroke-miterlimit="10" x1="4270.7" y1="-6.5" x2="4791.5" y2="534.2"/>
				
					<line fill="none" stroke="#000000" stroke-linejoin="round" stroke-miterlimit="10" x1="4340.6" y1="-73.8" x2="4861.4" y2="467"/>
				
					<line fill="none" stroke="#000000" stroke-linejoin="round" stroke-miterlimit="10" x1="4252.7" y1="10.8" x2="4773.5" y2="551.6"/>
				
					<line fill="none" stroke="#000000" stroke-linejoin="round" stroke-miterlimit="10" x1="4305.3" y1="-39.8" x2="4826.1" y2="501"/>
				
					<line fill="none" stroke="#000000" stroke-linejoin="round" stroke-miterlimit="10" x1="4323.3" y1="-57.1" x2="4844.1" y2="483.6"/>
			</g>
		</g>
		<use xlink:href="#XMLID_1_"  overflow="visible" fill="none" stroke="#000000" stroke-linejoin="round" stroke-miterlimit="10"/>
	</g>
</g>
</svg>
