<?xml version="1.0" encoding="utf-8"?>
<!-- Generator: Adobe Illustrator 17.1.0, SVG Export Plug-In . SVG Version: 6.00 Build 0)  -->
<!DOCTYPE svg PUBLIC "-//W3C//DTD SVG 1.1//EN" "http://www.w3.org/Graphics/SVG/1.1/DTD/svg11.dtd">
<svg version="1.1" xmlns="http://www.w3.org/2000/svg" xmlns:xlink="http://www.w3.org/1999/xlink" x="0px" y="0px"
	 viewBox="0 0 6749 231.9" enable-background="new 0 0 6749 231.9" xml:space="preserve">
<g id="Guides" display="none">
</g>
<g id="Guide" display="none">
	
		<image display="inline" overflow="visible" width="3264" height="2448" xlink:href="3DE249B1.jpg"  transform="matrix(0.3266 0 0 0.3266 1280 -246.6243)">
	</image>
	
		<image display="inline" overflow="visible" width="3264" height="2448" xlink:href="3DE249B7.jpg"  transform="matrix(0.3361 0 0 0.3361 5303.0547 -361.2137)">
	</image>
</g>
<g id="Sky" display="none">
	<rect x="0" y="-247.1" display="inline" fill="#BDCCD4" width="6400" height="801"/>
</g>
<g id="Ground" display="none">
	<rect x="0" y="215.9" display="inline" fill="#918377" width="6400" height="142"/>
</g>
<g id="Layer_5" display="none">
</g>
<g id="Layer_2">
	<g display="none">
		<rect x="1669" y="-247.6" display="inline" fill="none" width="1280" height="800"/>
	</g>
	<g display="none">
		<rect x="5178" y="-246.6" display="inline" fill="none" width="1280" height="800"/>
	</g>
	<g display="none">
		<rect x="3869" y="-246.6" display="inline" fill="none" width="1280" height="800"/>
	</g>
	<g>
		<path display="none" fill="#03160C" d="M1539.7,216.3c31.8-38.3,109.7-223.9,306-214.6C2042,11,2013.2,160.6,2391,159.5
			c377.9-1,354.7-166.8,551.9-175.9c199.5-9.2,305.3,203,462.3,201.3c157-1.6,265.7-102.4,494-178.9
			c228.2-76.5,408.2,210.2,408.2,210.2l-903.7,0.2L1539.7,216.3z"/>
		<path display="none" fill="#03160C" d="M-1151.6,216.3C-1119.8,178-1042-7.6-845.6,1.7c196.4,9.3,167.5,158.9,545.4,157.8
			C77.6,158.5,54.5-7.2,251.7-16.3C451.2-25.5,557,186.6,714,185c157-1.6,265.7-102.4,494-178.9c228.2-76.5,408.2,210.2,408.2,210.2
			l-903.7,0.2L-1151.6,216.3z"/>
		<path display="none" fill="#01160B" d="M1866.9,216.3c31.8-38.3,109.7-223.9,306-214.6c196.4,9.3,167.5,158.9,545.4,157.8
			c377.9-1,354.7-166.8,551.9-175.9c199.5-9.2,305.3,203,462.3,201.3c157-1.6,265.7-102.4,494-178.9
			c228.2-76.5,408.2,210.2,408.2,210.2l-903.7,0.2L1866.9,216.3z"/>
		<path display="none" fill="#01160B" d="M7378.5,216.3c-31.8-38.3-109.7-223.9-306-214.6C6876.2,11,6905,160.6,6527.1,159.5
			c-377.9-1-354.7-166.8-551.9-175.9c-199.5-9.2-305.3,203-462.3,201.3c-157-1.6-265.7-102.4-494-178.9
			c-228.2-76.5-408.2,210.2-408.2,210.2l903.7,0.2L7378.5,216.3z"/>
		<path display="none" fill="none" stroke="#000000" stroke-miterlimit="10" d="M1539.7,216.3c31.8-38.3,109.7-223.9,306-214.6
			C2042,11,2013.2,160.6,2391,159.5c377.9-1,354.7-166.8,551.9-175.9c199.5-9.2,305.3,203,462.3,201.3
			c157-1.6,265.7-102.4,494-178.9c228.2-76.5,408.2,210.2,408.2,210.2l-903.7,0.2L1539.7,216.3z"/>
		<path display="none" fill="#021E0F" d="M2175.7,205.4c26.8-33,92.3-193.2,257.4-185.2c165.2,8,140.9,137.1,458.8,136.2
			c317.9-0.9,298.4-143.9,464.3-151.8C3524-3.3,3612.9,179.8,3745,178.4C3877.1,177,3968.6,90,4160.5,24
			c192-66,343.3,181.4,343.3,181.4l-760.2,0.1L2175.7,205.4z"/>
		<path display="none" fill="#021E0F" d="M-344.2,205.4c26.8-33,92.3-193.2,257.4-185.2C78.4,28.2,54.1,157.3,372,156.4
			C689.8,155.5,670.4,12.5,836.3,4.6c167.8-7.9,256.8,175.2,388.9,173.8C1357.2,177,1448.7,90,1640.7,24
			c192-66,343.3,181.4,343.3,181.4l-760.2,0.1L-344.2,205.4z"/>
		<path display="none" fill="#021E0F" d="M6837.2,205.4c-26.8-33-289.1-184.9-454.2-176.9c-165.2,8-271.5,134.5-370.6,127.5
			c-209.9-15-189.8-143.5-355.7-151.3c-167.8-7.9-256.8,175.2-388.9,173.8C5135.8,177,5044.3,90,4852.3,24
			c-192-66-343.3,181.4-343.3,181.4l760.2,0.1L6837.2,205.4z"/>
		<path display="none" fill="none" stroke="#000000" stroke-miterlimit="10" d="M2175.7,205.4c26.8-33,92.3-193.2,257.4-185.2
			c165.2,8,140.9,137.1,458.8,136.2c317.9-0.9,298.4-143.9,464.3-151.8C3524-3.3,3612.9,179.8,3745,178.4
			C3877.1,177,3968.6,90,4160.5,24c192-66,343.3,181.4,343.3,181.4l-760.2,0.1L2175.7,205.4z"/>
		<rect x="2560" y="-246.6" display="none" fill="none" width="1280" height="800"/>
		<path fill="#132B1E" d="M568.7,165.1c168,19.2,105-128.3,312-120.9c207,7.4,67.6,86.6,321.1,98.4
			c253.5,11.8,232.4-104.2,440.9-105.7c208.5-1.5,238.6,127.8,415.6,126.3c177-1.5,226.4-117.6,418.4-119
			c118.3-0.9,268.1,97.4,336.4,101.8c126.7,8.3,357.5-93.4,709.3-111c216.3-10.9,496.9,91.3,634.7,98.9
			c146.3,8.1,157.7-94.2,364-91.2c205.5,3.1,128.7,106.2,392,111c215.8,3.9,231.8-156.4,416-151c133.2,3.9,390.2,129.6,608,129.6
			c140,0,373.7-153.8,463-129.7c95.6,25.8,347.5,225.5,349,229.3L1.8,226.9c0,0-32.4-223,181-224.2
			C396.2,1.5,400.7,145.9,568.7,165.1"/>
		<path display="none" fill="#132B1E" d="M187.9,178.9c168,15.2,105-101.7,312-95.8c207,5.9,79.5,94.7,333,104
			c253.5,9.3,220.5-108.7,429-109.8c208.5-1.2,250.5,127.4,427.5,126.2c177-1.2,214.5-119.2,406.5-120.4
			c118.3-0.7,280,103.2,348.2,106.8c126.7,6.6,345.6-100,697.4-114.1c216.3-8.6,382,142.8,518.3,121.5
			c114.1-17.8,331.3,0.4,348.2,34.6l-4387-3.9c0,0-32.4-176.9,181-177.8C15.4,49.2,19.9,163.7,187.9,178.9"/>
		<path display="none" fill="#132B1E" d="M-682.2,178.9c168,15.2,105-101.7,312-95.8c207,5.9,79.5,94.7,333,104
			c253.5,9.3,220.5-108.7,429-109.8c208.5-1.2,250.5,127.4,427.5,126.2c177-1.2,214.5-119.2,406.5-120.4
			c118.3-0.7,280,103.2,348.2,106.8c126.7,6.6,345.6-100,697.4-114.1c216.3-8.6,382,142.8,518.3,121.5
			c114.1-17.8,331.3,0.4,348.2,34.6l-4387-3.9c0,0-32.4-176.9,181-177.8C-854.7,49.2-850.2,163.7-682.2,178.9"/>
	</g>
	<rect x="2560" y="-246.6" display="none" fill="none" width="1280" height="800"/>
	<g display="none">
		<rect x="2560" y="-246.6" display="inline" fill="none" width="1280" height="800"/>
	</g>
</g>
<g id="Layer_7" display="none">
	<path display="inline" fill="#999999" stroke="#000000" stroke-miterlimit="10" d="M1935,234.4l-0.4-265.9L1842,9.1l0.5,270.3h0.5
		c0-0.9,0-0.5,0-0.5c0-34,10.2-93,45.7-100c32.4-6.4,46.2,11,45.6,31.9L1935,234.4z M1927.5,52.6l-79,22.3V15.3l79-22.3V52.6z"/>
	<polygon display="inline" fill="#666666" stroke="#000000" stroke-miterlimit="10" points="2033.7,74.4 2105.5,42 2150.5,100.4 
		2033,168.9 	"/>
	<path display="inline" fill="#808080" stroke="#000000" stroke-miterlimit="10" d="M1934.8-29.2l-0.3-46v407.6h99V-2.5L1934.8-29.2
		z M2028.5,71.4l-87-18.5l-1-57.3l87,18.5L2028.5,71.4z"/>
	<path display="inline" fill="#999999" stroke="#000000" stroke-miterlimit="10" d="M2033.6-2.5L1935,28.3l-0.5,140.5l-0.1,41.9
		c0-1,11.8-42.7,50.1-49.7c34.8-6.4,49.9,15.8,48.1,57.1 M2027.5,68l-86,25.9V34.3l86-25.9V68z"/>
	<polygon display="inline" fill="#B3B3B3" stroke="#000000" stroke-miterlimit="10" points="2033.6,332.6 2154.3,228.2 
		2150.5,100.4 2033,168.9 	"/>
	<polygon display="inline" fill="#666666" stroke="#000000" stroke-miterlimit="10" points="1842,6.9 1941,-115.1 2033.6,-2.5 
		1935,27.9 	"/>
	<g id="Layer_4" display="inline">
		<polygon fill="#4D4D4D" stroke="#000000" stroke-miterlimit="10" points="2066.5,249 2042.5,266.9 2043,185.2 2066.5,170.4 		"/>
		<polygon fill="#4D4D4D" stroke="#000000" stroke-miterlimit="10" points="2095.5,228.9 2075.5,242.1 2075.5,165.6 2095.5,152.4 		
			"/>
		<polygon fill="#4D4D4D" stroke="#000000" stroke-miterlimit="10" points="2123.5,210.3 2105.5,223.5 2105.5,147.4 2123.5,135.4 		
			"/>
		<polygon fill="#4D4D4D" stroke="#000000" stroke-miterlimit="10" points="2145.5,196.6 2130.5,206.9 2130.5,131.7 2145.5,121.4 		
			"/>
	</g>
	<g display="inline">
		<g>
			
				<image overflow="visible" width="594" height="232" xlink:href="3DE249B1.png"  transform="matrix(0.7547 0 0 0.7547 3115.6221 168.8757)">
			</image>
			<rect x="4953.9" y="168.9" fill="none" width="448.3" height="175.1"/>
		</g>
		<rect x="4953.9" y="168.9" fill="none" width="448.3" height="175.1"/>
	</g>
	<path display="inline" fill="#808080" stroke="#000000" stroke-miterlimit="10" d="M1841.8,7.4h-0.3l1,363.5l92,39v-382L1841.8,7.4
		z M1927.5,94l-79-16.1V18.3l79,16.1V94z"/>
	<polygon display="inline" fill="#4D4D4D" stroke="#000000" stroke-miterlimit="10" points="1868.5,112 1934.4,210.7 1732.5,328.9 
		1649.8,210.7 	"/>
	<polyline display="inline" fill="#666666" stroke="#000000" stroke-miterlimit="10" points="1567.5,329.4 1649.8,210.7 
		1732.5,329.4 1567,329.4 	"/>
	<polyline display="inline" fill="#999999" stroke="#000000" stroke-miterlimit="10" points="1732.5,328.9 1934.4,210.7 
		1934.5,409.9 1732.5,553.4 1732.5,328.9 	"/>
	<path display="inline" fill="none" stroke="#000000" stroke-miterlimit="10" d="M1934.4,210.7c0,0,9.6-30.1,30.1-41.9"/>
	<path display="inline" fill="#999999" d="M1934.9,164.1l0.1,43.3c8-20.5,21.8-42.3,50.4-47.3c34.9-6.1-48.1-33.6-49.9,7.8"/>
</g>
<g id="Layer_12" display="none">
</g>
<g id="Layer_8" display="none">
	<polygon display="inline" fill="#999999" stroke="#000000" stroke-miterlimit="10" points="6064.5,157 6064.5,221.5 6248.4,246.7 
		6247,174.3 6133,86.3 	"/>
	<polygon display="inline" fill="#808080" stroke="#000000" stroke-miterlimit="10" points="6248.2,246.7 6579.5,219 6579.5,149.8 
		6246.8,174.3 	"/>
	<polygon display="inline" fill="#4D4D4D" stroke="#000000" stroke-miterlimit="10" points="6133,86.3 6496.5,60.9 6579.8,149.8 
		6247,174.3 	"/>
	<polygon display="inline" fill="#999999" stroke="#000000" stroke-miterlimit="10" points="5496.5,195.9 5496.5,266.9 
		5699.2,294.7 5697.7,214.9 5572,117.9 	"/>
	<polygon display="inline" fill="#808080" stroke="#000000" stroke-miterlimit="10" points="5699.2,294.7 6064.5,264.1 
		6064.5,187.9 5697.7,214.9 	"/>
	<polygon display="inline" fill="#4D4D4D" stroke="#000000" stroke-miterlimit="10" points="5572,117.9 5972.6,89.9 6064.5,187.9 
		5697.7,214.9 	"/>
	<polygon display="inline" fill="#999999" stroke="#000000" stroke-miterlimit="10" points="5881.5,244.9 5881.5,315.9 
		6084.2,343.7 6082.7,263.9 5957,166.9 	"/>
	<polygon display="inline" fill="#4D4D4D" stroke="#000000" stroke-miterlimit="10" points="5957,166.9 6357.6,138.9 6449.5,236.9 
		6082.7,263.9 	"/>
</g>
<g id="Layer_9" display="none">
	
		<polyline display="inline" fill="none" stroke="#000000" stroke-width="8" stroke-linejoin="round" stroke-miterlimit="10" points="
		6357,342.9 6357,-76.1 6419.2,-131.5 	"/>
	
		<polyline display="inline" fill="none" stroke="#000000" stroke-width="8" stroke-linejoin="round" stroke-miterlimit="10" points="
		6226,342.9 6226,-76.1 6288.2,-131.5 	"/>
	
		<polyline display="inline" fill="none" stroke="#000000" stroke-width="8" stroke-linejoin="round" stroke-miterlimit="10" points="
		6094,342.9 6094,-76.1 6156.2,-131.5 	"/>
	
		<polyline display="inline" fill="none" stroke="#000000" stroke-width="8" stroke-linejoin="round" stroke-miterlimit="10" points="
		5963,342.9 5963,-76.1 6025.2,-131.5 	"/>
	
		<polyline display="inline" fill="none" stroke="#000000" stroke-width="8" stroke-linejoin="round" stroke-miterlimit="10" points="
		5832,342.9 5832,-76.1 5894.2,-131.5 	"/>
	
		<polyline display="inline" fill="none" stroke="#000000" stroke-width="8" stroke-linejoin="round" stroke-miterlimit="10" points="
		5701,342.9 5701,-76.1 5763.2,-131.5 	"/>
	
		<polyline display="inline" fill="none" stroke="#000000" stroke-width="8" stroke-linejoin="round" stroke-miterlimit="10" points="
		5569,342.9 5569,-76.1 5631.2,-131.5 	"/>
	
		<polyline display="inline" fill="none" stroke="#000000" stroke-width="8" stroke-linejoin="round" stroke-miterlimit="10" points="
		5438,342.9 5438,-76.1 5500.2,-131.5 	"/>
</g>
<g id="Layer_10" display="none">
	<g display="inline">
		<defs>
			<rect id="XMLID_1_" x="5437.5" y="-75.6" width="968" height="419"/>
		</defs>
		<clipPath id="XMLID_3_">
			<use xlink:href="#XMLID_1_"  overflow="visible"/>
		</clipPath>
		<g clip-path="url(#XMLID_3_)">
			
				<line fill="none" stroke="#000000" stroke-linejoin="round" stroke-miterlimit="10" x1="5668" y1="-280.5" x2="4961.7" y2="399.8"/>
			
				<line fill="none" stroke="#000000" stroke-linejoin="round" stroke-miterlimit="10" x1="6620" y1="114.5" x2="5913.7" y2="794.8"/>
			<g>
				
					<line fill="none" stroke="#000000" stroke-linejoin="round" stroke-miterlimit="10" x1="6163.2" y1="-221.6" x2="5456.9" y2="458.7"/>
				
					<line fill="none" stroke="#000000" stroke-linejoin="round" stroke-miterlimit="10" x1="5994.7" y1="-396.6" x2="5288.3" y2="283.7"/>
				
					<line fill="none" stroke="#000000" stroke-linejoin="round" stroke-miterlimit="10" x1="5910" y1="-484.5" x2="5203.7" y2="195.8"/>
				
					<line fill="none" stroke="#000000" stroke-linejoin="round" stroke-miterlimit="10" x1="5944" y1="-449.2" x2="5237.7" y2="231.1"/>
				
					<line fill="none" stroke="#000000" stroke-linejoin="round" stroke-miterlimit="10" x1="5977.3" y1="-414.6" x2="5271" y2="265.7"/>
				
					<line fill="none" stroke="#000000" stroke-linejoin="round" stroke-miterlimit="10" x1="5926.7" y1="-467.2" x2="5220.3" y2="213.1"/>
				
					<line fill="none" stroke="#000000" stroke-linejoin="round" stroke-miterlimit="10" x1="5960.7" y1="-431.9" x2="5254.3" y2="248.4"/>
				
					<line fill="none" stroke="#000000" stroke-linejoin="round" stroke-miterlimit="10" x1="6011.3" y1="-379.3" x2="5305" y2="301"/>
				
					<line fill="none" stroke="#000000" stroke-linejoin="round" stroke-miterlimit="10" x1="6028" y1="-362" x2="5321.6" y2="318.2"/>
				
					<line fill="none" stroke="#000000" stroke-linejoin="round" stroke-miterlimit="10" x1="6061.9" y1="-326.7" x2="5355.6" y2="353.5"/>
				
					<line fill="none" stroke="#000000" stroke-linejoin="round" stroke-miterlimit="10" x1="6045.3" y1="-344" x2="5338.9" y2="336.2"/>
				
					<line fill="none" stroke="#000000" stroke-linejoin="round" stroke-miterlimit="10" x1="6078.6" y1="-309.4" x2="5372.2" y2="370.8"/>
				
					<line fill="none" stroke="#000000" stroke-linejoin="round" stroke-miterlimit="10" x1="6112.6" y1="-274.2" x2="5406.2" y2="406.1"/>
				
					<line fill="none" stroke="#000000" stroke-linejoin="round" stroke-miterlimit="10" x1="6095.9" y1="-291.4" x2="5389.6" y2="388.8"/>
				
					<line fill="none" stroke="#000000" stroke-linejoin="round" stroke-miterlimit="10" x1="6146.6" y1="-238.9" x2="5440.2" y2="441.4"/>
				
					<line fill="none" stroke="#000000" stroke-linejoin="round" stroke-miterlimit="10" x1="6213.9" y1="-169" x2="5507.5" y2="511.3"/>
				
					<line fill="none" stroke="#000000" stroke-linejoin="round" stroke-miterlimit="10" x1="6129.2" y1="-256.9" x2="5422.9" y2="423.4"/>
				
					<line fill="none" stroke="#000000" stroke-linejoin="round" stroke-miterlimit="10" x1="6179.9" y1="-204.3" x2="5473.5" y2="476"/>
				
					<line fill="none" stroke="#000000" stroke-linejoin="round" stroke-miterlimit="10" x1="6197.2" y1="-186.3" x2="5490.9" y2="494"/>
			</g>
			<g>
				
					<line fill="none" stroke="#000000" stroke-linejoin="round" stroke-miterlimit="10" x1="6620.2" y1="-20.6" x2="5913.9" y2="659.7"/>
				
					<line fill="none" stroke="#000000" stroke-linejoin="round" stroke-miterlimit="10" x1="6451.7" y1="-195.6" x2="5745.3" y2="484.7"/>
				
					<line fill="none" stroke="#000000" stroke-linejoin="round" stroke-miterlimit="10" x1="6367" y1="-283.5" x2="5660.7" y2="396.8"/>
				
					<line fill="none" stroke="#000000" stroke-linejoin="round" stroke-miterlimit="10" x1="6401" y1="-248.2" x2="5694.7" y2="432.1"/>
				
					<line fill="none" stroke="#000000" stroke-linejoin="round" stroke-miterlimit="10" x1="6434.3" y1="-213.6" x2="5728" y2="466.7"/>
				
					<line fill="none" stroke="#000000" stroke-linejoin="round" stroke-miterlimit="10" x1="6383.7" y1="-266.2" x2="5677.3" y2="414.1"/>
				
					<line fill="none" stroke="#000000" stroke-linejoin="round" stroke-miterlimit="10" x1="6417.7" y1="-230.9" x2="5711.3" y2="449.4"/>
				
					<line fill="none" stroke="#000000" stroke-linejoin="round" stroke-miterlimit="10" x1="6468.3" y1="-178.3" x2="5762" y2="502"/>
				
					<line fill="none" stroke="#000000" stroke-linejoin="round" stroke-miterlimit="10" x1="6485" y1="-161" x2="5778.6" y2="519.2"/>
				
					<line fill="none" stroke="#000000" stroke-linejoin="round" stroke-miterlimit="10" x1="6518.9" y1="-125.7" x2="5812.6" y2="554.5"/>
				
					<line fill="none" stroke="#000000" stroke-linejoin="round" stroke-miterlimit="10" x1="6502.3" y1="-143" x2="5795.9" y2="537.2"/>
				
					<line fill="none" stroke="#000000" stroke-linejoin="round" stroke-miterlimit="10" x1="6535.6" y1="-108.4" x2="5829.2" y2="571.8"/>
				
					<line fill="none" stroke="#000000" stroke-linejoin="round" stroke-miterlimit="10" x1="6569.6" y1="-73.2" x2="5863.2" y2="607.1"/>
				
					<line fill="none" stroke="#000000" stroke-linejoin="round" stroke-miterlimit="10" x1="6552.9" y1="-90.4" x2="5846.6" y2="589.8"/>
				
					<line fill="none" stroke="#000000" stroke-linejoin="round" stroke-miterlimit="10" x1="6603.6" y1="-37.9" x2="5897.2" y2="642.4"/>
				
					<line fill="none" stroke="#000000" stroke-linejoin="round" stroke-miterlimit="10" x1="6670.9" y1="32" x2="5964.5" y2="712.3"/>
				
					<line fill="none" stroke="#000000" stroke-linejoin="round" stroke-miterlimit="10" x1="6586.2" y1="-55.9" x2="5879.9" y2="624.4"/>
				
					<line fill="none" stroke="#000000" stroke-linejoin="round" stroke-miterlimit="10" x1="6636.9" y1="-3.3" x2="5930.5" y2="677"/>
				
					<line fill="none" stroke="#000000" stroke-linejoin="round" stroke-miterlimit="10" x1="6654.2" y1="14.7" x2="5947.9" y2="695"/>
			</g>
			<g>
				
					<line fill="none" stroke="#000000" stroke-linejoin="round" stroke-miterlimit="10" x1="5977.8" y1="-616.5" x2="6658" y2="89.9"/>
				
					<line fill="none" stroke="#000000" stroke-linejoin="round" stroke-miterlimit="10" x1="5889.9" y1="-531.9" x2="6570.2" y2="174.5"/>
				
					<line fill="none" stroke="#000000" stroke-linejoin="round" stroke-miterlimit="10" x1="5925.2" y1="-565.8" x2="6605.5" y2="140.5"/>
				
					<line fill="none" stroke="#000000" stroke-linejoin="round" stroke-miterlimit="10" x1="5959.8" y1="-599.1" x2="6640" y2="107.2"/>
				
					<line fill="none" stroke="#000000" stroke-linejoin="round" stroke-miterlimit="10" x1="5907.2" y1="-548.5" x2="6587.4" y2="157.8"/>
				
					<line fill="none" stroke="#000000" stroke-linejoin="round" stroke-miterlimit="10" x1="5942.5" y1="-582.5" x2="6622.7" y2="123.9"/>
				
					<line fill="none" stroke="#000000" stroke-linejoin="round" stroke-miterlimit="10" x1="5995.1" y1="-633.1" x2="6675.3" y2="73.2"/>
				
					<line fill="none" stroke="#000000" stroke-linejoin="round" stroke-miterlimit="10" x1="6012.3" y1="-649.8" x2="6692.6" y2="56.6"/>
				
					<line fill="none" stroke="#000000" stroke-linejoin="round" stroke-miterlimit="10" x1="6047.6" y1="-683.8" x2="6727.9" y2="22.6"/>
				
					<line fill="none" stroke="#000000" stroke-linejoin="round" stroke-miterlimit="10" x1="6030.3" y1="-667.1" x2="6710.6" y2="39.2"/>
				
					<line fill="none" stroke="#000000" stroke-linejoin="round" stroke-miterlimit="10" x1="6064.9" y1="-700.4" x2="6745.2" y2="5.9"/>
			</g>
			<g>
				
					<line fill="none" stroke="#000000" stroke-linejoin="round" stroke-miterlimit="10" x1="5825.8" y1="-458.1" x2="6506.1" y2="248.3"/>
				
					<line fill="none" stroke="#000000" stroke-linejoin="round" stroke-miterlimit="10" x1="5650.8" y1="-289.5" x2="6331" y2="416.9"/>
				
					<line fill="none" stroke="#000000" stroke-linejoin="round" stroke-miterlimit="10" x1="5562.9" y1="-204.9" x2="6243.2" y2="501.5"/>
				
					<line fill="none" stroke="#000000" stroke-linejoin="round" stroke-miterlimit="10" x1="5598.2" y1="-238.8" x2="6278.5" y2="467.5"/>
				
					<line fill="none" stroke="#000000" stroke-linejoin="round" stroke-miterlimit="10" x1="5632.8" y1="-272.1" x2="6313" y2="434.2"/>
				
					<line fill="none" stroke="#000000" stroke-linejoin="round" stroke-miterlimit="10" x1="5580.2" y1="-221.5" x2="6260.4" y2="484.8"/>
				
					<line fill="none" stroke="#000000" stroke-linejoin="round" stroke-miterlimit="10" x1="5615.5" y1="-255.5" x2="6295.7" y2="450.9"/>
				
					<line fill="none" stroke="#000000" stroke-linejoin="round" stroke-miterlimit="10" x1="5668.1" y1="-306.1" x2="6348.3" y2="400.2"/>
				
					<line fill="none" stroke="#000000" stroke-linejoin="round" stroke-miterlimit="10" x1="5685.3" y1="-322.8" x2="6365.6" y2="383.6"/>
				
					<line fill="none" stroke="#000000" stroke-linejoin="round" stroke-miterlimit="10" x1="5720.6" y1="-356.8" x2="6400.9" y2="349.6"/>
				
					<line fill="none" stroke="#000000" stroke-linejoin="round" stroke-miterlimit="10" x1="5703.3" y1="-340.1" x2="6383.6" y2="366.2"/>
				
					<line fill="none" stroke="#000000" stroke-linejoin="round" stroke-miterlimit="10" x1="5737.9" y1="-373.4" x2="6418.2" y2="332.9"/>
				
					<line fill="none" stroke="#000000" stroke-linejoin="round" stroke-miterlimit="10" x1="5773.2" y1="-407.4" x2="6453.5" y2="298.9"/>
				
					<line fill="none" stroke="#000000" stroke-linejoin="round" stroke-miterlimit="10" x1="5755.9" y1="-390.8" x2="6436.2" y2="315.6"/>
				
					<line fill="none" stroke="#000000" stroke-linejoin="round" stroke-miterlimit="10" x1="5808.5" y1="-441.4" x2="6488.8" y2="264.9"/>
				
					<line fill="none" stroke="#000000" stroke-linejoin="round" stroke-miterlimit="10" x1="5878.4" y1="-508.7" x2="6558.6" y2="197.7"/>
				
					<line fill="none" stroke="#000000" stroke-linejoin="round" stroke-miterlimit="10" x1="5790.5" y1="-424.1" x2="6470.8" y2="282.3"/>
				
					<line fill="none" stroke="#000000" stroke-linejoin="round" stroke-miterlimit="10" x1="5843.1" y1="-474.7" x2="6523.3" y2="231.6"/>
				
					<line fill="none" stroke="#000000" stroke-linejoin="round" stroke-miterlimit="10" x1="5861.1" y1="-492" x2="6541.4" y2="214.3"/>
			</g>
			<g>
				
					<line fill="none" stroke="#000000" stroke-linejoin="round" stroke-miterlimit="10" x1="5493.8" y1="-137.1" x2="6014.6" y2="403.7"/>
				
					<line fill="none" stroke="#000000" stroke-linejoin="round" stroke-miterlimit="10" x1="5318.8" y1="31.5" x2="5839.5" y2="572.3"/>
				
					<line fill="none" stroke="#000000" stroke-linejoin="round" stroke-miterlimit="10" x1="5230.9" y1="116.1" x2="5751.7" y2="656.9"/>
				
					<line fill="none" stroke="#000000" stroke-linejoin="round" stroke-miterlimit="10" x1="5266.2" y1="82.2" x2="5787" y2="622.9"/>
				
					<line fill="none" stroke="#000000" stroke-linejoin="round" stroke-miterlimit="10" x1="5300.8" y1="48.9" x2="5821.5" y2="589.6"/>
				
					<line fill="none" stroke="#000000" stroke-linejoin="round" stroke-miterlimit="10" x1="5248.2" y1="99.5" x2="5769" y2="640.2"/>
				
					<line fill="none" stroke="#000000" stroke-linejoin="round" stroke-miterlimit="10" x1="5283.5" y1="65.5" x2="5804.3" y2="606.2"/>
				
					<line fill="none" stroke="#000000" stroke-linejoin="round" stroke-miterlimit="10" x1="5336.1" y1="14.9" x2="5856.8" y2="555.6"/>
				
					<line fill="none" stroke="#000000" stroke-linejoin="round" stroke-miterlimit="10" x1="5353.3" y1="-1.8" x2="5874.1" y2="539"/>
				
					<line fill="none" stroke="#000000" stroke-linejoin="round" stroke-miterlimit="10" x1="5388.6" y1="-35.8" x2="5909.4" y2="505"/>
				
					<line fill="none" stroke="#000000" stroke-linejoin="round" stroke-miterlimit="10" x1="5371.3" y1="-19.1" x2="5892.1" y2="521.6"/>
				
					<line fill="none" stroke="#000000" stroke-linejoin="round" stroke-miterlimit="10" x1="5405.9" y1="-52.4" x2="5926.7" y2="488.3"/>
				
					<line fill="none" stroke="#000000" stroke-linejoin="round" stroke-miterlimit="10" x1="5441.2" y1="-86.4" x2="5962" y2="454.3"/>
				
					<line fill="none" stroke="#000000" stroke-linejoin="round" stroke-miterlimit="10" x1="5423.9" y1="-69.8" x2="5944.7" y2="471"/>
				
					<line fill="none" stroke="#000000" stroke-linejoin="round" stroke-miterlimit="10" x1="5476.5" y1="-120.4" x2="5997.3" y2="420.3"/>
				
					<line fill="none" stroke="#000000" stroke-linejoin="round" stroke-miterlimit="10" x1="5546.4" y1="-187.7" x2="6067.2" y2="353.1"/>
				
					<line fill="none" stroke="#000000" stroke-linejoin="round" stroke-miterlimit="10" x1="5458.5" y1="-103.1" x2="5979.3" y2="437.7"/>
				
					<line fill="none" stroke="#000000" stroke-linejoin="round" stroke-miterlimit="10" x1="5511.1" y1="-153.7" x2="6031.9" y2="387"/>
				
					<line fill="none" stroke="#000000" stroke-linejoin="round" stroke-miterlimit="10" x1="5529.1" y1="-171" x2="6049.9" y2="369.7"/>
			</g>
		</g>
		<use xlink:href="#XMLID_1_"  overflow="visible" fill="none" stroke="#000000" stroke-linejoin="round" stroke-miterlimit="10"/>
	</g>
</g>
</svg>
