<?xml version="1.0" encoding="utf-8"?>
<!-- Generator: Adobe Illustrator 17.1.0, SVG Export Plug-In . SVG Version: 6.00 Build 0)  -->
<!DOCTYPE svg PUBLIC "-//W3C//DTD SVG 1.1//EN" "http://www.w3.org/Graphics/SVG/1.1/DTD/svg11.dtd">
<svg version="1.1" xmlns="http://www.w3.org/2000/svg" xmlns:xlink="http://www.w3.org/1999/xlink" x="0px" y="0px"
	 viewBox="0 0 44 43.7" enable-background="new 0 0 44 43.7" xml:space="preserve">
<symbol  id="Wheel" viewBox="-22 -21.9 44 43.7">
	<path fill="none" stroke="#000000" stroke-width="3" stroke-miterlimit="10" d="M20.3,0c0-11.2-9.1-20.4-20.4-20.4
		S-20.4-11.3-20.4,0S-11.3,20.3,0,20.3S20.3,11.2,20.3,0z"/>
	<line fill="none" stroke="#000000" stroke-miterlimit="10" x1="-0.5" y1="20" x2="-0.5" y2="-21"/>
	<line fill="none" stroke="#000000" stroke-miterlimit="10" x1="-21" y1="-0.5" x2="20" y2="-0.5"/>
	<line fill="none" stroke="#000000" stroke-miterlimit="10" x1="15" y1="14.6" x2="-13.8" y2="-14.2"/>
	<line fill="none" stroke="#000000" stroke-miterlimit="10" x1="-14.6" y1="14.2" x2="14" y2="-14.5"/>
	<line fill="none" stroke="#000000" stroke-miterlimit="10" x1="7.2" y1="18.7" x2="-7.2" y2="-19.1"/>
	<line fill="none" stroke="#000000" stroke-miterlimit="10" x1="-18.9" y1="7" x2="18.9" y2="-7.4"/>
	<line fill="none" stroke="#000000" stroke-miterlimit="10" x1="19.2" y1="8.3" x2="-17.8" y2="-8.4"/>
	<line fill="none" stroke="#000000" stroke-miterlimit="10" x1="-8.6" y1="18.4" x2="8" y2="-18.5"/>
	<polygon display="none" fill="none" points="-22,21 22,21 22,-21 -22,-21 	"/>
</symbol>
<g id="Guide" display="none">
</g>
<g id="Guide2" display="none">
</g>
<g id="carriage" display="none">
</g>
<g id="Layer_6" display="none">
</g>
<g id="Coal" display="none">
</g>
<g id="Layer_2">
	
		<use xlink:href="#Wheel"  width="44" height="43.7" id="XMLID_2_" x="-22" y="-21.9" transform="matrix(1 0 0 -1 22 21.833)" overflow="visible"/>
	<path display="none" fill="#666666" stroke="#000000" stroke-miterlimit="10" d="M172,22.3c0,1.7-1,3-2.3,3H18.8
		c-1.3,0-2.3-1.3-2.3-3l0,0c0-1.7,1-3,2.3-3h150.8C170.9,19.3,172,20.7,172,22.3L172,22.3z"/>
</g>
</svg>
