<?xml version="1.0" encoding="utf-8"?>
<!-- Generator: Adobe Illustrator 17.1.0, SVG Export Plug-In . SVG Version: 6.00 Build 0)  -->
<!DOCTYPE svg PUBLIC "-//W3C//DTD SVG 1.1//EN" "http://www.w3.org/Graphics/SVG/1.1/DTD/svg11.dtd">
<svg version="1.1" xmlns="http://www.w3.org/2000/svg" xmlns:xlink="http://www.w3.org/1999/xlink" x="0px" y="0px"
	 viewBox="0 0 593.2 231" enable-background="new 0 0 593.2 231" xml:space="preserve">
<symbol  id="Coal_1_" viewBox="-8 -8 16 16">
	<path fill="#333333" stroke="#000000" stroke-miterlimit="10" d="M7.5,0c0-4.1-3.4-7.5-7.5-7.5S-7.5-4.1-7.5,0S-4.1,7.5,0,7.5
		S7.5,4.1,7.5,0z"/>
	<polygon display="none" fill="none" points="-8,8 8,8 8,-8 -8,-8 	"/>
</symbol>
<symbol  id="Screw" viewBox="-1 -0.9 2 1.7">
	<path fill="#333333" stroke="#000000" stroke-width="0.25" stroke-miterlimit="10" d="M0.7,0c0-0.4-0.3-0.7-0.7-0.7
		c-0.4,0-0.7,0.3-0.7,0.7c0,0.4,0.3,0.7,0.7,0.7C0.4,0.7,0.7,0.4,0.7,0z"/>
	<polygon display="none" fill="none" points="-1,0 1,0 1,0 -1,0 	"/>
</symbol>
<symbol  id="Wheel" viewBox="-22 -21.9 44 43.7">
	<path fill="none" stroke="#000000" stroke-width="3" stroke-miterlimit="10" d="M20.3,0c0-11.2-9.1-20.4-20.4-20.4
		S-20.4-11.3-20.4,0S-11.3,20.3,0,20.3S20.3,11.2,20.3,0z"/>
	<line fill="none" stroke="#000000" stroke-miterlimit="10" x1="-0.5" y1="20" x2="-0.5" y2="-21"/>
	<line fill="none" stroke="#000000" stroke-miterlimit="10" x1="-21" y1="-0.5" x2="20" y2="-0.5"/>
	<line fill="none" stroke="#000000" stroke-miterlimit="10" x1="15" y1="14.6" x2="-13.8" y2="-14.2"/>
	<line fill="none" stroke="#000000" stroke-miterlimit="10" x1="-14.6" y1="14.2" x2="14" y2="-14.5"/>
	<line fill="none" stroke="#000000" stroke-miterlimit="10" x1="7.2" y1="18.7" x2="-7.2" y2="-19.1"/>
	<line fill="none" stroke="#000000" stroke-miterlimit="10" x1="-18.9" y1="7" x2="18.9" y2="-7.4"/>
	<line fill="none" stroke="#000000" stroke-miterlimit="10" x1="19.2" y1="8.3" x2="-17.8" y2="-8.4"/>
	<line fill="none" stroke="#000000" stroke-miterlimit="10" x1="-8.6" y1="18.4" x2="8" y2="-18.5"/>
	<polygon display="none" fill="none" points="-22,21 22,21 22,-21 -22,-21 	"/>
</symbol>
<g id="Guide" display="none">
</g>
<g id="Guide2" display="none">
</g>
<g id="carriage" display="none">
	<path id="hitch" display="inline" fill="#4D4D4D" stroke="#000000" stroke-miterlimit="10" d="M66.7,157.7c0,1.1-3.1,2.8-6.9,2.8
		H9.2c-3.9,0-7.5-1.7-7.5-2.8v-0.1c0-1.1,3.6-1.1,7.5-1.1h50.6c3.9,0,6.9-0.1,6.9,1.1V157.7z"/>
	<g id="carriageBody" display="inline">
		<polygon id="frontPanel" fill="#333333" stroke="#000000" stroke-miterlimit="10" points="38.7,69 23.3,59.2 13,67 13.7,162.5 
			38.7,154.5 		"/>
		<path id="roof" fill="#333333" stroke="#000000" stroke-miterlimit="10" d="M-146.4,65.9c0,0,9.7-8.4,18.9-10.7
			c9.2-2.3,59.2-3.9,72-3.9s73.9-0.6,86,5c-2.7,7.1-5.5,7.1-5.5,7.1L13.5,66L-146.4,65.9z"/>
		<rect id="sidePanel" x="-146.3" y="66.5" fill="#808080" stroke="#000000" stroke-miterlimit="10" width="160" height="96"/>
		<path id="roofArch" fill="#666666" stroke="#000000" stroke-miterlimit="10" d="M14.3,65.8c0,0,4.1-10.4,12.2-10.4
			s12.2,12.3,12.2,13.6c0,2.3,0,2.5,0,2.5s-2.6-6.6-11.2-8.1C19,62,14,68.6,14,68.6"/>
	</g>
	<g id="sideDecorations" display="inline">
		<line fill="none" stroke="#000000" stroke-miterlimit="10" x1="2.7" y1="114" x2="2.7" y2="162"/>
		<polyline fill="none" stroke="#000000" stroke-miterlimit="10" points="-8.1,117.8 -4.6,114.5 9.7,114.5 13.9,117.9 		"/>
	</g>
</g>
<g id="Layer_6" display="none">
</g>
<g id="Coal" display="none">
	
		<use xlink:href="#Coal_1_"  width="16" height="16" x="-8" y="-8" transform="matrix(1 0 0 -1 96.2309 44)" display="inline" overflow="visible"/>
	
		<use xlink:href="#Coal_1_"  width="16" height="16" x="-8" y="-8" transform="matrix(1 0 0 -1 128.2309 31)" display="inline" overflow="visible"/>
	
		<use xlink:href="#Coal_1_"  width="16" height="16" x="-8" y="-8" transform="matrix(1 0 0 -1 120.2309 39)" display="inline" overflow="visible"/>
	
		<use xlink:href="#Coal_1_"  width="16" height="16" x="-8" y="-8" transform="matrix(1 0 0 -1 146.2309 44)" display="inline" overflow="visible"/>
	
		<use xlink:href="#Coal_1_"  width="16" height="16" x="-8" y="-8" transform="matrix(1 0 0 -1 154.2309 38)" display="inline" overflow="visible"/>
	
		<use xlink:href="#Coal_1_"  width="16" height="16" x="-8" y="-8" transform="matrix(1 0 0 -1 182.2309 43)" display="inline" overflow="visible"/>
	
		<use xlink:href="#Coal_1_"  width="16" height="16" x="-8" y="-8" transform="matrix(1 0 0 -1 174.2309 43)" display="inline" overflow="visible"/>
	
		<use xlink:href="#Coal_1_"  width="16" height="16" x="-8" y="-8" transform="matrix(1 0 0 -1 162.2309 43)" display="inline" overflow="visible"/>
	
		<use xlink:href="#Coal_1_"  width="16" height="16" x="-8" y="-8" transform="matrix(1 0 0 -1 162.2309 35)" display="inline" overflow="visible"/>
	
		<use xlink:href="#Coal_1_"  width="16" height="16" x="-8" y="-8" transform="matrix(1 0 0 -1 146.2309 32)" display="inline" overflow="visible"/>
	
		<use xlink:href="#Coal_1_"  width="16" height="16" x="-8" y="-8" transform="matrix(1 0 0 -1 135.2309 30)" display="inline" overflow="visible"/>
	
		<use xlink:href="#Coal_1_"  width="16" height="16" x="-8" y="-8" transform="matrix(1 0 0 -1 152.2309 32)" display="inline" overflow="visible"/>
	
		<use xlink:href="#Coal_1_"  width="16" height="16" x="-8" y="-8" transform="matrix(1 0 0 -1 155.2309 48)" display="inline" overflow="visible"/>
	
		<use xlink:href="#Coal_1_"  width="16" height="16" x="-8" y="-8" transform="matrix(1 0 0 -1 104.2309 40)" display="inline" overflow="visible"/>
	
		<use xlink:href="#Coal_1_"  width="16" height="16" x="-8" y="-8" transform="matrix(1 0 0 -1 117.2309 35)" display="inline" overflow="visible"/>
	
		<use xlink:href="#Coal_1_"  width="16" height="16" x="-8" y="-8" transform="matrix(1 0 0 -1 172.2309 37)" display="inline" overflow="visible"/>
	
		<use xlink:href="#Coal_1_"  width="16" height="16" x="-8" y="-8" transform="matrix(1 0 0 -1 128.2309 43)" display="inline" overflow="visible"/>
	
		<use xlink:href="#Coal_1_"  width="16" height="16" x="-8" y="-8" transform="matrix(0.9995 3.300000e-002 3.300000e-002 -0.9995 136.2309 39)" display="inline" overflow="visible"/>
	
		<use xlink:href="#Coal_1_"  width="16" height="16" x="-8" y="-8" transform="matrix(1 0 0 -1 112.2309 47)" display="inline" overflow="visible"/>
</g>
<g id="Layer_2">
	<line fill="none" stroke="#000000" stroke-width="2" stroke-miterlimit="10" x1="187.2" y1="231" x2="187.2" y2="178"/>
	<line fill="none" stroke="#000000" stroke-width="2" stroke-miterlimit="10" x1="199.2" y1="231" x2="199.2" y2="178"/>
	<line fill="none" stroke="#000000" stroke-width="2" stroke-miterlimit="10" x1="188.2" y1="201" x2="200.2" y2="201"/>
	<line fill="none" stroke="#000000" stroke-miterlimit="10" x1="188.2" y1="187.5" x2="200.2" y2="187.5"/>
	<line fill="none" stroke="#000000" stroke-width="2" stroke-miterlimit="10" x1="188.2" y1="213" x2="200.2" y2="213"/>
	<line fill="none" stroke="#000000" stroke-width="2" stroke-miterlimit="10" x1="188.2" y1="225" x2="200.2" y2="225"/>
	<rect x="258.7" y="122.5" fill="#333333" stroke="#000000" stroke-miterlimit="10" width="231" height="61"/>
	<line fill="none" stroke="#000000" stroke-miterlimit="10" x1="258.2" y1="142.5" x2="489.2" y2="142.5"/>
	<path fill="#4D4D4D" stroke="#000000" stroke-miterlimit="10" d="M243.7,197.5c0,6.6-5.4,12-12,12h-15c-6.6,0-12-5.4-12-12v-15
		c0-6.6,5.4-12,12-12h15c6.6,0,12,5.4,12,12V197.5z"/>
	<line fill="none" stroke="#000000" stroke-miterlimit="10" x1="258.2" y1="163.5" x2="489.2" y2="163.5"/>
	<path fill="#4D4D4D" stroke="#000000" stroke-miterlimit="10" d="M186.2,63.5c0,0,0-29.8,11.5-31.3s80.5,0.1,80.5,0.1
		c-9.5,5.5-19.5,15.1-18,31.1H186.2z"/>
	<path fill="#B3B3B3" stroke="#000000" stroke-miterlimit="10" d="M186.7,63.5v124h74v-124H186.7z M242.7,98.5c0,6.6-5.4,12-12,12
		h-13c-6.6,0-12-5.4-12-12v-13c0-6.6,5.4-12,12-12h13c6.6,0,12,5.4,12,12V98.5z"/>
	<polygon fill="#666666" stroke="#000000" stroke-miterlimit="10" points="538.2,172.5 523.2,113.5 502.2,113.5 486.5,172.5 	"/>
	<path fill="#808080" stroke="#000000" stroke-miterlimit="10" d="M46.6,113.7c0,0,33.3-64.6,39-66.1c5.7-1.6,102.3,0,102.3,0
		l-3.3,114.8L46.6,113.7z"/>
	<g>
		<path fill="#666666" stroke="#000000" stroke-miterlimit="10" d="M185.7,182c-6.7,5.3-162.1,6.9-169.5,0c-4.7-4.3-21-58.4-14-64
			c11.3-9,162.1-4.8,166.3-3C154.6,139.7,179.1,169,185.7,182z"/>
		<path fill="#666666" stroke="#000000" stroke-miterlimit="10" d="M185.7,182c-6.7-13-31.2-42.3-17.2-67c8,1,17.7,1.7,17.7,1.7
			S192.4,179.7,185.7,182z"/>
	</g>
	<path fill="#666666" stroke="#000000" stroke-miterlimit="10" d="M278.2,32.4l251-11.4c0,0,15.5,99.5,0,103s-268.5,0-268.5,0
		s-0.6-50.7-0.5-60.5C260.4,54.5,259.7,40.5,278.2,32.4z"/>
	<g id="XMLID_1_">
		<g>
			<path fill="#808080" d="M427,19.5c3.7,2.3,3.7,5.9,3.7,5.9S429.8,22.5,427,19.5z"/>
			<path fill="#B3B3B3" d="M427,19.5c2.7,3,3.7,5.9,3.7,5.9s-15.5,0.7-23.5,15c0,0-10.5-20,6.5-22.5C420.5,17,424.6,18,427,19.5z"/>
			<path fill="#808080" d="M427,19.5c-2.5-1.6-6.5-2.5-13.3-1.5c-17,2.5-6.5,22.5-6.5,22.5h-19c0,0-8.3-19.5,9.7-24.9
				C414.1,9.7,422.8,14.8,427,19.5z"/>
		</g>
		<g>
			<path fill="none" stroke="#000000" stroke-miterlimit="10" d="M430.7,25.5c0,0-1-2.9-3.7-5.9c-4.3-4.8-13-9.8-29.1-4
				c-18,5.4-9.7,24.9-9.7,24.9h19c0,0-10.5-20,6.5-22.5c6.8-1,10.9,0,13.3,1.5C430.7,21.9,430.7,25.5,430.7,25.5s-15.5,0.7-23.5,15"
				/>
		</g>
	</g>
	<rect x="557.7" y="170.5" fill="#666666" stroke="#000000" stroke-miterlimit="10" width="30" height="10"/>
	<ellipse fill="#999999" stroke="#000000" stroke-miterlimit="10" cx="588.7" cy="175.5" rx="3" ry="5"/>
	<rect x="559.7" y="172.5" fill="#666666" stroke="#000000" stroke-miterlimit="10" width="30" height="10"/>
	<ellipse fill="#999999" stroke="#000000" stroke-miterlimit="10" cx="589.7" cy="177.5" rx="3" ry="5"/>
	<rect x="517.7" y="170.5" fill="#999999" stroke="#000000" stroke-miterlimit="10" width="50" height="44"/>
	<ellipse fill="#B3B3B3" stroke="#000000" stroke-miterlimit="10" cx="531" cy="73.3" rx="12.3" ry="52.3"/>
	
		<use xlink:href="#Wheel"  width="44" height="43.7" x="-22" y="-21.9" transform="matrix(1 0 0 -1 158.2309 209)" display="none" overflow="visible"/>
	
		<use xlink:href="#Wheel"  width="44" height="43.7" x="-22" y="-21.9" transform="matrix(1 0 0 -1 113.2309 209)" display="none" overflow="visible"/>
	
		<use xlink:href="#Wheel"  width="44" height="43.7" x="-22" y="-21.9" transform="matrix(1 0 0 -1 68.2309 209)" display="none" overflow="visible"/>
	
		<use xlink:href="#Wheel"  width="44" height="43.7" id="XMLID_2_" x="-22" y="-21.9" transform="matrix(1 0 0 -1 23.2309 209)" display="none" overflow="visible"/>
	
		<use xlink:href="#Wheel"  width="44" height="43.7" x="-22" y="-21.9" transform="matrix(1 0 0 -1 409.2309 209)" display="none" overflow="visible"/>
	
		<use xlink:href="#Wheel"  width="44" height="43.7" x="-22" y="-21.9" transform="matrix(1 0 0 -1 454.2309 209)" display="none" overflow="visible"/>
	
		<use xlink:href="#Wheel"  width="44" height="43.7" x="-22" y="-21.9" transform="matrix(1 0 0 -1 364.2309 209)" display="none" overflow="visible"/>
	
		<use xlink:href="#Wheel"  width="44" height="43.7" x="-22" y="-21.9" transform="matrix(1 0 0 -1 319.2309 209)" display="none" overflow="visible"/>
	
		<use xlink:href="#Wheel"  width="44" height="43.7" id="XMLID_3_" x="-22" y="-21.9" transform="matrix(1 0 0 -1 274.2309 209)" display="none" overflow="visible"/>
	
		<use xlink:href="#Wheel"  width="44" height="43.7" x="-22" y="-21.9" transform="matrix(0.6224 0 0 -0.6224 536.2309 218)" display="none" overflow="visible"/>
	
		<use xlink:href="#Wheel"  width="44" height="43.7" x="-22" y="-21.9" transform="matrix(0.4174 0 0 -0.4174 559.7407 222.4873)" display="none" overflow="visible"/>
	<path fill="#808080" stroke="#000000" stroke-miterlimit="10" d="M232.9,32.5c0,0-0.3-9.6,2-10.9c2.3-1.3,39-1.5,40.7,0.1
		s0,10.8,0,10.8H232.9z"/>
	<path fill="#4D4D4D" stroke="#000000" stroke-miterlimit="10" d="M321.7,27c0,2.4-2.2,4.5-5,4.5h-31c-2.8,0-5-2.1-5-4.5
		c0-1.2,0.6-2.3,1.5-3.1c0.9-0.8,2.2-1.4,3.5-1.4h31C319.5,22.5,321.7,24.6,321.7,27z"/>
	<path fill="#999999" stroke="#000000" stroke-miterlimit="10" d="M321.7,27c0,2.4-2.2,4.5-5,4.5c-2.8,0-5-2.1-5-4.5
		c0-1.2,0.6-2.3,1.5-3.1c0.9-0.8,2.2-1.4,3.5-1.4C319.5,22.5,321.7,24.6,321.7,27z"/>
	<path display="none" fill="#666666" stroke="#000000" stroke-miterlimit="10" d="M468.7,209.5c0,1.7-1.3,3-3,3h-193
		c-1.7,0-3-1.3-3-3l0,0c0-1.7,1.3-3,3-3h193C467.4,206.5,468.7,207.8,468.7,209.5L468.7,209.5z"/>
	<path display="none" fill="#666666" stroke="#000000" stroke-miterlimit="10" d="M173.2,209.5c0,1.7-1,3-2.3,3H20.1
		c-1.3,0-2.3-1.3-2.3-3l0,0c0-1.7,1-3,2.3-3h150.8C172.1,206.5,173.2,207.8,173.2,209.5L173.2,209.5z"/>
	<path fill="#808080" stroke="#000000" stroke-linejoin="round" stroke-miterlimit="10" d="M489.2,104.5h11c0,0-1.9,8.7,0.3,14
		c3.4,8.3,12.4,6.5,12.4,6.5s-14.7,28-10.7,36.7l-15.7,1.8C486.6,163.5,481.9,119,489.2,104.5z"/>
	<path fill="#4D4D4D" stroke="#000000" stroke-miterlimit="10" d="M521.7,208.5c0,6.6-6,12-13.4,12h-16.7c-7.4,0-13.9-5.4-13.9-12
		v-38c0-6.6,6.5-12,13.9-12h16.7c7.4,0,13.4,5.4,13.4,12V208.5z"/>
	<path fill="#808080" stroke="#000000" stroke-miterlimit="10" d="M502.7,175.9c0,2.3-2.5,4.6-5.4,4.6h-6.6c-2.9,0-6-2.3-6-4.6
		v-15.5c1.9-1.4,4.5-1.7,7.9-1.9h4.7c2.9,0,5.4,0,5.4,0V175.9z"/>
	<use xlink:href="#Screw"  width="2" height="1.7" x="-1" y="-0.9" transform="matrix(1 0 0 -1 500.2309 161)" overflow="visible"/>
	<use xlink:href="#Screw"  width="2" height="1.7" x="-1" y="-0.9" transform="matrix(1 0 0 -1 487.2309 161)" overflow="visible"/>
	<use xlink:href="#Screw"  width="2" height="1.7" x="-1" y="-0.9" transform="matrix(1 0 0 -1 500.2309 177)" overflow="visible"/>
	<use xlink:href="#Screw"  width="2" height="1.7" x="-1" y="-0.9" transform="matrix(1 0 0 -1 487.2309 177)" overflow="visible"/>
	<rect x="586.2" y="119.5" fill="#999999" stroke="#000000" stroke-miterlimit="10" width="0.3" height="0.5"/>
	<circle fill="#808080" stroke="#000000" stroke-miterlimit="10" cx="273.9" cy="56" r="4.3"/>
	<circle fill="#808080" stroke="#000000" stroke-miterlimit="10" cx="285.4" cy="56" r="4.3"/>
	<circle fill="#808080" stroke="#000000" stroke-miterlimit="10" cx="296.9" cy="56" r="4.3"/>
	<circle fill="#808080" stroke="#000000" stroke-miterlimit="10" cx="328.9" cy="56" r="4.3"/>
	<path fill="#666666" stroke="#000000" stroke-miterlimit="10" d="M497.7,5.5c-0.6,2.3-5,4-10.4,4c-5.4,0-9.8-1.8-10.4-4H497.7z"/>
	<path fill="#999999" stroke="#000000" stroke-miterlimit="10" d="M497.7,5c0,0.2,0,0.3-0.1,0.5c-0.6,2.3-5,4-10.4,4
		c-5.4,0-9.8-1.8-10.4-4c0-0.2-0.1-0.3-0.1-0.5c0-2.5,4.7-4.5,10.5-4.5C493,0.5,497.7,2.5,497.7,5z"/>
	<path fill="#666666" stroke="#000000" stroke-miterlimit="10" d="M497.7,25c0,2.5-4.7,4.5-10.5,4.5c-5.8,0-10.5-2-10.5-4.5
		c0-0.2,0-19.5,0-19.5h0.1c0.6,2.3,5,4,10.4,4c5.4,0,9.8-1.8,10.4-4h0.1C497.7,5.5,497.7,24.8,497.7,25z"/>
	<line fill="none" stroke="#000000" stroke-miterlimit="10" x1="519.7" y1="97.2" x2="524.7" y2="93.8"/>
	<line fill="none" stroke="#000000" stroke-miterlimit="10" x1="519.2" y1="77.4" x2="525.2" y2="77.6"/>
	<line fill="none" stroke="#000000" stroke-miterlimit="10" x1="538.8" y1="77.6" x2="543.2" y2="77.4"/>
	<line fill="none" stroke="#000000" stroke-miterlimit="10" x1="538.2" y1="91.4" x2="542.1" y2="90.8"/>
	<line fill="none" stroke="#000000" stroke-miterlimit="10" x1="536.7" y1="107.2" x2="539.8" y2="109"/>
	<line fill="none" stroke="#000000" stroke-miterlimit="10" x1="532.4" y1="119.5" x2="532.1" y2="125.5"/>
	<line fill="none" stroke="#000000" stroke-miterlimit="10" x1="527.1" y1="108.1" x2="523.4" y2="112.9"/>
	<line fill="none" stroke="#000000" stroke-miterlimit="10" x1="525.2" y1="58.7" x2="519.3" y2="58.3"/>
	<line fill="none" stroke="#000000" stroke-miterlimit="10" x1="526.2" y1="42.8" x2="522.3" y2="38.3"/>
	<line fill="none" stroke="#000000" stroke-miterlimit="10" x1="531.5" y1="26.5" x2="531" y2="20.5"/>
	<line fill="none" stroke="#000000" stroke-miterlimit="10" x1="537.3" y1="44.1" x2="540.8" y2="41.9"/>
	<line fill="none" stroke="#000000" stroke-miterlimit="10" x1="538.4" y1="61.4" x2="543.1" y2="60.9"/>
</g>
</svg>
