<?xml version="1.0" encoding="utf-8"?>
<!-- Generator: Adobe Illustrator 17.1.0, SVG Export Plug-In . SVG Version: 6.00 Build 0)  -->
<!DOCTYPE svg PUBLIC "-//W3C//DTD SVG 1.1//EN" "http://www.w3.org/Graphics/SVG/1.1/DTD/svg11.dtd">
<svg version="1.1" xmlns="http://www.w3.org/2000/svg" xmlns:xlink="http://www.w3.org/1999/xlink" x="0px" y="0px"
	 viewBox="0 0 2589 25" enable-background="new 0 0 2589 25" xml:space="preserve">
<g id="Guides" display="none">
</g>
<g id="Guide" display="none">
</g>
<g id="Sky" display="none">
	<rect x="-2559" y="-587.5" display="inline" fill="#BDCCD4" width="6400" height="801"/>
</g>
<g id="Ground" display="none">
	<rect x="-2559" y="-124.5" display="inline" fill="#918377" width="6400" height="142"/>
</g>
<g id="Layer_5" display="none">
</g>
<g id="Layer_2">
	<g display="none">
		<g display="inline">
			<g>
				<g>
					<path fill="#352C08" d="M32,21.3C32,23,27.1,24,20.5,24h-7C6.9,24,1,23,1,21.3V5c0-1.7,5.9-3,12.5-3h7C27.1,2,32,3.3,32,5V21.3
						z"/>
					<rect x="1" y="2" fill="none" width="31" height="22"/>
				</g>
				<rect x="1" y="2" fill="none" width="31" height="22"/>
			</g>
			<g>
				<g>
					<path fill="#352C08" d="M92,21.3C92,23,87.1,24,80.5,24h-7C66.9,24,61,23,61,21.3V5c0-1.7,5.9-3,12.5-3h7C87.1,2,92,3.3,92,5
						V21.3z"/>
					<rect x="61" y="2" fill="none" width="31" height="22"/>
				</g>
				<rect x="61" y="2" fill="none" width="31" height="22"/>
			</g>
			<g>
				<g>
					<path fill="#352C08" d="M151,21.3c0,1.7-4.9,2.7-11.5,2.7h-7c-6.6,0-12.5-1-12.5-2.7V5c0-1.7,5.9-3,12.5-3h7
						c6.6,0,11.5,1.3,11.5,3V21.3z"/>
					<rect x="120" y="2" fill="none" width="31" height="22"/>
				</g>
				<rect x="120" y="2" fill="none" width="31" height="22"/>
			</g>
			<g>
				<g>
					<path fill="#352C08" d="M211,21.3c0,1.7-4.9,2.7-11.5,2.7h-7c-6.6,0-12.5-1-12.5-2.7V5c0-1.7,5.9-3,12.5-3h7
						c6.6,0,11.5,1.3,11.5,3V21.3z"/>
					<rect x="180" y="2" fill="none" width="31" height="22"/>
				</g>
				<rect x="180" y="2" fill="none" width="31" height="22"/>
			</g>
			<g>
				<g>
					<path fill="#352C08" d="M270,21.3c0,1.7-4.9,2.7-11.5,2.7h-7c-6.6,0-12.5-1-12.5-2.7V5c0-1.7,5.9-3,12.5-3h7
						c6.6,0,11.5,1.3,11.5,3V21.3z"/>
					<rect x="239" y="2" fill="none" width="31" height="22"/>
				</g>
				<rect x="239" y="2" fill="none" width="31" height="22"/>
			</g>
			<g>
				<g>
					<path fill="#352C08" d="M330,21.3c0,1.7-4.9,2.7-11.5,2.7h-7c-6.6,0-12.5-1-12.5-2.7V5c0-1.7,5.9-3,12.5-3h7
						c6.6,0,11.5,1.3,11.5,3V21.3z"/>
					<rect x="299" y="2" fill="none" width="31" height="22"/>
				</g>
				<rect x="299" y="2" fill="none" width="31" height="22"/>
			</g>
			<g>
				<g>
					<path fill="#352C08" d="M389,21.3c0,1.7-4.9,2.7-11.5,2.7h-7c-6.6,0-12.5-1-12.5-2.7V5c0-1.7,5.9-3,12.5-3h7
						c6.6,0,11.5,1.3,11.5,3V21.3z"/>
					<rect x="358" y="2" fill="none" width="31" height="22"/>
				</g>
				<rect x="358" y="2" fill="none" width="31" height="22"/>
			</g>
			<rect x="-891" y="2" fill="none" width="1280" height="22"/>
		</g>
		
			<line display="inline" fill="none" stroke="#000000" stroke-width="5" stroke-miterlimit="10" x1="-891" y1="1.5" x2="416" y2="3"/>
		<rect x="-890" y="-588" display="inline" fill="none" width="1280" height="800"/>
	</g>
	<g display="none">
		
			<line display="inline" fill="none" stroke="#000000" stroke-width="5" stroke-miterlimit="10" x1="2589" y1="3" x2="3898" y2="2.5"/>
	</g>
	<g>
		<g>
			<g>
				<g>
					<path fill="#352C08" d="M1340,22.3c0,1.7-4.9,2.7-11.5,2.7h-7c-6.6,0-12.5-1-12.5-2.7V6c0-1.7,5.9-3,12.5-3h7
						c6.6,0,11.5,1.3,11.5,3V22.3z"/>
					<rect x="1309" y="3" fill="none" width="31" height="22"/>
				</g>
				<rect x="1309" y="3" fill="none" width="31" height="22"/>
			</g>
			<g>
				<g>
					<path fill="#352C08" d="M1399,22.3c0,1.7-4.9,2.7-11.5,2.7h-7c-6.6,0-12.5-1-12.5-2.7V6c0-1.7,5.9-3,12.5-3h7
						c6.6,0,11.5,1.3,11.5,3V22.3z"/>
					<rect x="1368" y="3" fill="none" width="31" height="22"/>
				</g>
				<rect x="1368" y="3" fill="none" width="31" height="22"/>
			</g>
			<g>
				<g>
					<path fill="#352C08" d="M1459,22.3c0,1.7-4.9,2.7-11.5,2.7h-7c-6.6,0-12.5-1-12.5-2.7V6c0-1.7,5.9-3,12.5-3h7
						c6.6,0,11.5,1.3,11.5,3V22.3z"/>
					<rect x="1428" y="3" fill="none" width="31" height="22"/>
				</g>
				<rect x="1428" y="3" fill="none" width="31" height="22"/>
			</g>
			<g>
				<g>
					<path fill="#352C08" d="M1518,22.3c0,1.7-4.9,2.7-11.5,2.7h-7c-6.6,0-12.5-1-12.5-2.7V6c0-1.7,5.9-3,12.5-3h7
						c6.6,0,11.5,1.3,11.5,3V22.3z"/>
					<rect x="1487" y="3" fill="none" width="31" height="22"/>
				</g>
				<rect x="1487" y="3" fill="none" width="31" height="22"/>
			</g>
			<g>
				<g>
					<path fill="#352C08" d="M1578,22.3c0,1.7-4.9,2.7-11.5,2.7h-7c-6.6,0-12.5-1-12.5-2.7V6c0-1.7,5.9-3,12.5-3h7
						c6.6,0,11.5,1.3,11.5,3V22.3z"/>
					<rect x="1547" y="3" fill="none" width="31" height="22"/>
				</g>
				<rect x="1547" y="3" fill="none" width="31" height="22"/>
			</g>
			<g>
				<g>
					<path fill="#352C08" d="M1637,22.3c0,1.7-4.9,2.7-11.5,2.7h-7c-6.6,0-12.5-1-12.5-2.7V6c0-1.7,5.9-3,12.5-3h7
						c6.6,0,11.5,1.3,11.5,3V22.3z"/>
					<rect x="1606" y="3" fill="none" width="31" height="22"/>
				</g>
				<rect x="1606" y="3" fill="none" width="31" height="22"/>
			</g>
			<g>
				<g>
					<path fill="#352C08" d="M1697,22.3c0,1.7-4.9,2.7-11.5,2.7h-7c-6.6,0-12.5-1-12.5-2.7V6c0-1.7,5.9-3,12.5-3h7
						c6.6,0,11.5,1.3,11.5,3V22.3z"/>
					<rect x="1666" y="3" fill="none" width="31" height="22"/>
				</g>
				<rect x="1666" y="3" fill="none" width="31" height="22"/>
			</g>
			<g>
				<g>
					<path fill="#352C08" d="M1756,22.3c0,1.7-4.9,2.7-11.5,2.7h-7c-6.6,0-12.5-1-12.5-2.7V6c0-1.7,5.9-3,12.5-3h7
						c6.6,0,11.5,1.3,11.5,3V22.3z"/>
					<rect x="1725" y="3" fill="none" width="31" height="22"/>
				</g>
				<rect x="1725" y="3" fill="none" width="31" height="22"/>
			</g>
			<g>
				<g>
					<path fill="#352C08" d="M1816,22.3c0,1.7-4.9,2.7-11.5,2.7h-7c-6.6,0-12.5-1-12.5-2.7V6c0-1.7,5.9-3,12.5-3h7
						c6.6,0,11.5,1.3,11.5,3V22.3z"/>
					<rect x="1785" y="3" fill="none" width="31" height="22"/>
				</g>
				<rect x="1785" y="3" fill="none" width="31" height="22"/>
			</g>
			<g>
				<g>
					<path fill="#352C08" d="M1875,22.3c0,1.7-4.9,2.7-11.5,2.7h-7c-6.6,0-12.5-1-12.5-2.7V6c0-1.7,5.9-3,12.5-3h7
						c6.6,0,11.5,1.3,11.5,3V22.3z"/>
					<rect x="1844" y="3" fill="none" width="31" height="22"/>
				</g>
				<rect x="1844" y="3" fill="none" width="31" height="22"/>
			</g>
			<g>
				<g>
					<path fill="#352C08" d="M1935,22.3c0,1.7-4.9,2.7-11.5,2.7h-7c-6.6,0-12.5-1-12.5-2.7V6c0-1.7,5.9-3,12.5-3h7
						c6.6,0,11.5,1.3,11.5,3V22.3z"/>
					<rect x="1904" y="3" fill="none" width="31" height="22"/>
				</g>
				<rect x="1904" y="3" fill="none" width="31" height="22"/>
			</g>
			<g>
				<g>
					<path fill="#352C08" d="M1994,22.3c0,1.7-4.9,2.7-11.5,2.7h-7c-6.6,0-12.5-1-12.5-2.7V6c0-1.7,5.9-3,12.5-3h7
						c6.6,0,11.5,1.3,11.5,3V22.3z"/>
					<rect x="1963" y="3" fill="none" width="31" height="22"/>
				</g>
				<rect x="1963" y="3" fill="none" width="31" height="22"/>
			</g>
			<g>
				<g>
					<path fill="#352C08" d="M2054,22.3c0,1.7-4.9,2.7-11.5,2.7h-7c-6.6,0-12.5-1-12.5-2.7V6c0-1.7,5.9-3,12.5-3h7
						c6.6,0,11.5,1.3,11.5,3V22.3z"/>
					<rect x="2023" y="3" fill="none" width="31" height="22"/>
				</g>
				<rect x="2023" y="3" fill="none" width="31" height="22"/>
			</g>
			<g>
				<g>
					<path fill="#352C08" d="M2113,22.3c0,1.7-4.9,2.7-11.5,2.7h-7c-6.6,0-12.5-1-12.5-2.7V6c0-1.7,5.9-3,12.5-3h7
						c6.6,0,11.5,1.3,11.5,3V22.3z"/>
					<rect x="2082" y="3" fill="none" width="31" height="22"/>
				</g>
				<rect x="2082" y="3" fill="none" width="31" height="22"/>
			</g>
			<g>
				<g>
					<path fill="#352C08" d="M2173,22.3c0,1.7-4.9,2.7-11.5,2.7h-7c-6.6,0-12.5-1-12.5-2.7V6c0-1.7,5.9-3,12.5-3h7
						c6.6,0,11.5,1.3,11.5,3V22.3z"/>
					<rect x="2142" y="3" fill="none" width="31" height="22"/>
				</g>
				<rect x="2142" y="3" fill="none" width="31" height="22"/>
			</g>
			<g>
				<g>
					<path fill="#352C08" d="M2232,22.3c0,1.7-4.9,2.7-11.5,2.7h-7c-6.6,0-12.5-1-12.5-2.7V6c0-1.7,5.9-3,12.5-3h7
						c6.6,0,11.5,1.3,11.5,3V22.3z"/>
					<rect x="2201" y="3" fill="none" width="31" height="22"/>
				</g>
				<rect x="2201" y="3" fill="none" width="31" height="22"/>
			</g>
			<g>
				<g>
					<path fill="#352C08" d="M2292,22.3c0,1.7-4.9,2.7-11.5,2.7h-7c-6.6,0-12.5-1-12.5-2.7V6c0-1.7,5.9-3,12.5-3h7
						c6.6,0,11.5,1.3,11.5,3V22.3z"/>
					<rect x="2261" y="3" fill="none" width="31" height="22"/>
				</g>
				<rect x="2261" y="3" fill="none" width="31" height="22"/>
			</g>
			<g>
				<g>
					<path fill="#352C08" d="M2351,22.3c0,1.7-4.9,2.7-11.5,2.7h-7c-6.6,0-12.5-1-12.5-2.7V6c0-1.7,5.9-3,12.5-3h7
						c6.6,0,11.5,1.3,11.5,3V22.3z"/>
					<rect x="2320" y="3" fill="none" width="31" height="22"/>
				</g>
				<rect x="2320" y="3" fill="none" width="31" height="22"/>
			</g>
			<g>
				<g>
					<path fill="#352C08" d="M2411,22.3c0,1.7-4.9,2.7-11.5,2.7h-7c-6.6,0-12.5-1-12.5-2.7V6c0-1.7,5.9-3,12.5-3h7
						c6.6,0,11.5,1.3,11.5,3V22.3z"/>
					<rect x="2380" y="3" fill="none" width="31" height="22"/>
				</g>
				<rect x="2380" y="3" fill="none" width="31" height="22"/>
			</g>
			<g>
				<g>
					<path fill="#352C08" d="M2470,22.3c0,1.7-4.9,2.7-11.5,2.7h-7c-6.6,0-12.5-1-12.5-2.7V6c0-1.7,5.9-3,12.5-3h7
						c6.6,0,11.5,1.3,11.5,3V22.3z"/>
					<rect x="2439" y="3" fill="none" width="31" height="22"/>
				</g>
				<rect x="2439" y="3" fill="none" width="31" height="22"/>
			</g>
			<g>
				<g>
					<path fill="#352C08" d="M2530,22.3c0,1.7-4.9,2.7-11.5,2.7h-7c-6.6,0-12.5-1-12.5-2.7V6c0-1.7,5.9-3,12.5-3h7
						c6.6,0,11.5,1.3,11.5,3V22.3z"/>
					<rect x="2499" y="3" fill="none" width="31" height="22"/>
				</g>
				<rect x="2499" y="3" fill="none" width="31" height="22"/>
			</g>
			<g>
				<g>
					<path fill="#352C08" d="M2589,22.3c0,1.7-4.9,2.7-11.5,2.7h-7c-6.6,0-12.5-1-12.5-2.7V6c0-1.7,5.9-3,12.5-3h7
						c6.6,0,11.5,1.3,11.5,3V22.3z"/>
					<rect x="2558" y="3" fill="none" width="31" height="22"/>
				</g>
				<rect x="2558" y="3" fill="none" width="31" height="22"/>
			</g>
			<rect x="1309" y="3" fill="none" width="1280" height="22"/>
		</g>
		<line fill="none" stroke="#000000" stroke-width="5" stroke-miterlimit="10" x1="1280" y1="3" x2="2589" y2="2.5"/>
		<rect x="1310" y="-587" fill="none" width="1280" height="800"/>
	</g>
	<g display="none">
		<rect x="1" y="-587" fill="none" width="1280" height="800"/>
	</g>
	<rect x="1" y="15" display="none" fill="#999999" width="1278" height="11"/>
	<rect x="-2559" y="17" display="none" fill="#093806" width="6400" height="196"/>
	<rect x="1" y="-587" display="none" fill="none" width="1280" height="800"/>
	<g>
		<g>
			<g>
				<g>
					<path fill="#352C08" d="M31,22.3C31,24,26.1,25,19.5,25h-7C5.9,25,0,24,0,22.3V6c0-1.7,5.9-3,12.5-3h7C26.1,3,31,4.3,31,6V22.3
						z"/>
					<rect y="3" fill="none" width="31" height="22"/>
				</g>
				<rect y="3" fill="none" width="31" height="22"/>
			</g>
			<g>
				<g>
					<path fill="#352C08" d="M90,22.3C90,24,85.1,25,78.5,25h-7C64.9,25,59,24,59,22.3V6c0-1.7,5.9-3,12.5-3h7C85.1,3,90,4.3,90,6
						V22.3z"/>
					<rect x="59" y="3" fill="none" width="31" height="22"/>
				</g>
				<rect x="59" y="3" fill="none" width="31" height="22"/>
			</g>
			<g>
				<g>
					<path fill="#352C08" d="M150,22.3c0,1.7-4.9,2.7-11.5,2.7h-7c-6.6,0-12.5-1-12.5-2.7V6c0-1.7,5.9-3,12.5-3h7
						c6.6,0,11.5,1.3,11.5,3V22.3z"/>
					<rect x="119" y="3" fill="none" width="31" height="22"/>
				</g>
				<rect x="119" y="3" fill="none" width="31" height="22"/>
			</g>
			<g>
				<g>
					<path fill="#352C08" d="M209,22.3c0,1.7-4.9,2.7-11.5,2.7h-7c-6.6,0-12.5-1-12.5-2.7V6c0-1.7,5.9-3,12.5-3h7
						c6.6,0,11.5,1.3,11.5,3V22.3z"/>
					<rect x="178" y="3" fill="none" width="31" height="22"/>
				</g>
				<rect x="178" y="3" fill="none" width="31" height="22"/>
			</g>
			<g>
				<g>
					<path fill="#352C08" d="M269,22.3c0,1.7-4.9,2.7-11.5,2.7h-7c-6.6,0-12.5-1-12.5-2.7V6c0-1.7,5.9-3,12.5-3h7
						c6.6,0,11.5,1.3,11.5,3V22.3z"/>
					<rect x="238" y="3" fill="none" width="31" height="22"/>
				</g>
				<rect x="238" y="3" fill="none" width="31" height="22"/>
			</g>
			<g>
				<g>
					<path fill="#352C08" d="M328,22.3c0,1.7-4.9,2.7-11.5,2.7h-7c-6.6,0-12.5-1-12.5-2.7V6c0-1.7,5.9-3,12.5-3h7
						c6.6,0,11.5,1.3,11.5,3V22.3z"/>
					<rect x="297" y="3" fill="none" width="31" height="22"/>
				</g>
				<rect x="297" y="3" fill="none" width="31" height="22"/>
			</g>
			<g>
				<g>
					<path fill="#352C08" d="M388,22.3c0,1.7-4.9,2.7-11.5,2.7h-7c-6.6,0-12.5-1-12.5-2.7V6c0-1.7,5.9-3,12.5-3h7
						c6.6,0,11.5,1.3,11.5,3V22.3z"/>
					<rect x="357" y="3" fill="none" width="31" height="22"/>
				</g>
				<rect x="357" y="3" fill="none" width="31" height="22"/>
			</g>
			<g>
				<g>
					<path fill="#352C08" d="M447,22.3c0,1.7-4.9,2.7-11.5,2.7h-7c-6.6,0-12.5-1-12.5-2.7V6c0-1.7,5.9-3,12.5-3h7
						c6.6,0,11.5,1.3,11.5,3V22.3z"/>
					<rect x="416" y="3" fill="none" width="31" height="22"/>
				</g>
				<rect x="416" y="3" fill="none" width="31" height="22"/>
			</g>
			<g>
				<g>
					<path fill="#352C08" d="M507,22.3c0,1.7-4.9,2.7-11.5,2.7h-7c-6.6,0-12.5-1-12.5-2.7V6c0-1.7,5.9-3,12.5-3h7
						c6.6,0,11.5,1.3,11.5,3V22.3z"/>
					<rect x="476" y="3" fill="none" width="31" height="22"/>
				</g>
				<rect x="476" y="3" fill="none" width="31" height="22"/>
			</g>
			<g>
				<g>
					<path fill="#352C08" d="M566,22.3c0,1.7-4.9,2.7-11.5,2.7h-7c-6.6,0-12.5-1-12.5-2.7V6c0-1.7,5.9-3,12.5-3h7
						c6.6,0,11.5,1.3,11.5,3V22.3z"/>
					<rect x="535" y="3" fill="none" width="31" height="22"/>
				</g>
				<rect x="535" y="3" fill="none" width="31" height="22"/>
			</g>
			<g>
				<g>
					<path fill="#352C08" d="M626,22.3c0,1.7-4.9,2.7-11.5,2.7h-7c-6.6,0-12.5-1-12.5-2.7V6c0-1.7,5.9-3,12.5-3h7
						c6.6,0,11.5,1.3,11.5,3V22.3z"/>
					<rect x="595" y="3" fill="none" width="31" height="22"/>
				</g>
				<rect x="595" y="3" fill="none" width="31" height="22"/>
			</g>
			<g>
				<g>
					<path fill="#352C08" d="M685,22.3c0,1.7-4.9,2.7-11.5,2.7h-7c-6.6,0-12.5-1-12.5-2.7V6c0-1.7,5.9-3,12.5-3h7
						c6.6,0,11.5,1.3,11.5,3V22.3z"/>
					<rect x="654" y="3" fill="none" width="31" height="22"/>
				</g>
				<rect x="654" y="3" fill="none" width="31" height="22"/>
			</g>
			<g>
				<g>
					<path fill="#352C08" d="M745,22.3c0,1.7-4.9,2.7-11.5,2.7h-7c-6.6,0-12.5-1-12.5-2.7V6c0-1.7,5.9-3,12.5-3h7
						c6.6,0,11.5,1.3,11.5,3V22.3z"/>
					<rect x="714" y="3" fill="none" width="31" height="22"/>
				</g>
				<rect x="714" y="3" fill="none" width="31" height="22"/>
			</g>
			<g>
				<g>
					<path fill="#352C08" d="M804,22.3c0,1.7-4.9,2.7-11.5,2.7h-7c-6.6,0-12.5-1-12.5-2.7V6c0-1.7,5.9-3,12.5-3h7
						c6.6,0,11.5,1.3,11.5,3V22.3z"/>
					<rect x="773" y="3" fill="none" width="31" height="22"/>
				</g>
				<rect x="773" y="3" fill="none" width="31" height="22"/>
			</g>
			<g>
				<g>
					<path fill="#352C08" d="M864,22.3c0,1.7-4.9,2.7-11.5,2.7h-7c-6.6,0-12.5-1-12.5-2.7V6c0-1.7,5.9-3,12.5-3h7
						c6.6,0,11.5,1.3,11.5,3V22.3z"/>
					<rect x="833" y="3" fill="none" width="31" height="22"/>
				</g>
				<rect x="833" y="3" fill="none" width="31" height="22"/>
			</g>
			<g>
				<g>
					<path fill="#352C08" d="M923,22.3c0,1.7-4.9,2.7-11.5,2.7h-7c-6.6,0-12.5-1-12.5-2.7V6c0-1.7,5.9-3,12.5-3h7
						c6.6,0,11.5,1.3,11.5,3V22.3z"/>
					<rect x="892" y="3" fill="none" width="31" height="22"/>
				</g>
				<rect x="892" y="3" fill="none" width="31" height="22"/>
			</g>
			<g>
				<g>
					<path fill="#352C08" d="M983,22.3c0,1.7-4.9,2.7-11.5,2.7h-7c-6.6,0-12.5-1-12.5-2.7V6c0-1.7,5.9-3,12.5-3h7
						c6.6,0,11.5,1.3,11.5,3V22.3z"/>
					<rect x="952" y="3" fill="none" width="31" height="22"/>
				</g>
				<rect x="952" y="3" fill="none" width="31" height="22"/>
			</g>
			<g>
				<g>
					<path fill="#352C08" d="M1042,22.3c0,1.7-4.9,2.7-11.5,2.7h-7c-6.6,0-12.5-1-12.5-2.7V6c0-1.7,5.9-3,12.5-3h7
						c6.6,0,11.5,1.3,11.5,3V22.3z"/>
					<rect x="1011" y="3" fill="none" width="31" height="22"/>
				</g>
				<rect x="1011" y="3" fill="none" width="31" height="22"/>
			</g>
			<g>
				<g>
					<path fill="#352C08" d="M1102,22.3c0,1.7-4.9,2.7-11.5,2.7h-7c-6.6,0-12.5-1-12.5-2.7V6c0-1.7,5.9-3,12.5-3h7
						c6.6,0,11.5,1.3,11.5,3V22.3z"/>
					<rect x="1071" y="3" fill="none" width="31" height="22"/>
				</g>
				<rect x="1071" y="3" fill="none" width="31" height="22"/>
			</g>
			<g>
				<g>
					<path fill="#352C08" d="M1161,22.3c0,1.7-4.9,2.7-11.5,2.7h-7c-6.6,0-12.5-1-12.5-2.7V6c0-1.7,5.9-3,12.5-3h7
						c6.6,0,11.5,1.3,11.5,3V22.3z"/>
					<rect x="1130" y="3" fill="none" width="31" height="22"/>
				</g>
				<rect x="1130" y="3" fill="none" width="31" height="22"/>
			</g>
			<g>
				<g>
					<path fill="#352C08" d="M1221,22.3c0,1.7-4.9,2.7-11.5,2.7h-7c-6.6,0-12.5-1-12.5-2.7V6c0-1.7,5.9-3,12.5-3h7
						c6.6,0,11.5,1.3,11.5,3V22.3z"/>
					<rect x="1190" y="3" fill="none" width="31" height="22"/>
				</g>
				<rect x="1190" y="3" fill="none" width="31" height="22"/>
			</g>
			<g>
				<g>
					<path fill="#352C08" d="M1280,22.3c0,1.7-4.9,2.7-11.5,2.7h-7c-6.6,0-12.5-1-12.5-2.7V6c0-1.7,5.9-3,12.5-3h7
						c6.6,0,11.5,1.3,11.5,3V22.3z"/>
					<rect x="1249" y="3" fill="none" width="31" height="22"/>
				</g>
				<rect x="1249" y="3" fill="none" width="31" height="22"/>
			</g>
			<rect y="3" fill="none" width="1280" height="22"/>
		</g>
		<line fill="none" stroke="#000000" stroke-width="5" stroke-miterlimit="10" x1="0" y1="3" x2="1280" y2="2.5"/>
		<rect x="1" y="-587" fill="none" width="1280" height="800"/>
	</g>
</g>
<g id="Layer_7" display="none">
	<g id="Layer_4">
	</g>
	<g>
		<g display="inline">
			<rect x="1019.7" y="-171.5" fill="none" width="448.3" height="175.1"/>
		</g>
		<rect x="1019.7" y="-171.5" display="inline" fill="none" width="448.3" height="175.1"/>
	</g>
</g>
<g id="Layer_12" display="none">
</g>
<g id="Layer_8" display="none">
</g>
<g id="Layer_9" display="none">
</g>
<g id="Layer_10" display="none">
	<g display="inline">
		<defs>
			<rect id="XMLID_1_" x="2878.5" y="-416" width="968" height="419"/>
		</defs>
		<clipPath id="XMLID_3_">
			<use xlink:href="#XMLID_1_"  overflow="visible"/>
		</clipPath>
		<g clip-path="url(#XMLID_3_)">
			
				<line fill="none" stroke="#000000" stroke-linejoin="round" stroke-miterlimit="10" x1="3109" y1="-620.9" x2="2402.7" y2="59.4"/>
		</g>
		<use xlink:href="#XMLID_1_"  overflow="visible" fill="none" stroke="#000000" stroke-linejoin="round" stroke-miterlimit="10"/>
	</g>
</g>
</svg>
