<?xml version="1.0" encoding="utf-8"?>
<!-- Generator: Adobe Illustrator 17.1.0, SVG Export Plug-In . SVG Version: 6.00 Build 0)  -->
<!DOCTYPE svg PUBLIC "-//W3C//DTD SVG 1.1//EN" "http://www.w3.org/Graphics/SVG/1.1/DTD/svg11.dtd">
<svg version="1.1" xmlns="http://www.w3.org/2000/svg" xmlns:xlink="http://www.w3.org/1999/xlink" x="0px" y="0px"
	 viewBox="0 0 473.7 463.3" enable-background="new 0 0 473.7 463.3" xml:space="preserve">
<g id="Layer_1">
	<path id="tree001" display="none" fill="#808080" stroke="#000000" stroke-miterlimit="10" d="M420.7,461.2c-61,7-106-14-178-13
		s-128.7,20-189.7,13s-52-67-52-67c53,66,98.6-8.4,104-10c-54,19-62-50-62-52c45,56,145-63,101-41s-57-47-57-47c45,48,96-30,96-30
		c-27,18-65-39-64-40c49,43,116-66,89-44s-58-14-58-14c31,19,81.7-93,91.7-115c10,22,51,134,82,115c0,0-31,36-58,14s40,87,89,44
		c1,1-37,58-64,40c0,0,51,78,96,30c0,0-13,69-57,47s56,97,101,41c0,2-8,71-62,52c5.3,1.6,51,76,104,10
		C472.7,394.2,481.7,454.2,420.7,461.2z"/>
	<path id="tree001_2_" fill="#15261B" stroke="#000000" stroke-miterlimit="10" d="M420.7,461.2c-61,7-106-14-178-13
		s-128.7,20-189.7,13s-52-67-52-67c53,66,98.6-8.4,104-10c-54,19-62-50-62-52c45,56,145-63,101-41s-57-47-57-47c45,48,96-30,96-30
		c-27,18-65-39-64-40c49,43,116-66,89-44s-58-14-58-14c31,19,81.7-93,91.7-115c10,22,51,134,82,115c0,0-31,36-58,14s40,87,89,44
		c1,1-37,58-64,40c0,0,51,78,96,30c0,0-13,69-57,47s56,97,101,41c0,2-8,71-62,52c5.3,1.6,51,76,104,10
		C472.7,394.2,481.7,454.2,420.7,461.2z"/>
	<path id="tree001_3_" display="none" fill="#021E0F" stroke="#000000" stroke-miterlimit="10" d="M420.7,461.2c-61,7-106-14-178-13
		s-128.7,20-189.7,13s-52-67-52-67c53,66,98.6-8.4,104-10c-54,19-62-50-62-52c45,56,145-63,101-41s-57-47-57-47c45,48,96-30,96-30
		c-27,18-65-39-64-40c49,43,116-66,89-44s-58-14-58-14c31,19,81.7-93,91.7-115c10,22,51,134,82,115c0,0-31,36-58,14s40,87,89,44
		c1,1-37,58-64,40c0,0,51,78,96,30c0,0-13,69-57,47s56,97,101,41c0,2-8,71-62,52c5.3,1.6,51,76,104,10
		C472.7,394.2,481.7,454.2,420.7,461.2z"/>
	<path id="tree001_1_" display="none" fill="#01160B" stroke="#000000" stroke-miterlimit="10" d="M420.7,461.2c-61,7-106-14-178-13
		s-128.7,20-189.7,13s-52-67-52-67c53,66,98.6-8.4,104-10c-54,19-62-50-62-52c45,56,145-63,101-41s-57-47-57-47c45,48,96-30,96-30
		c-27,18-65-39-64-40c49,43,116-66,89-44s-58-14-58-14c31,19,81.7-93,91.7-115c10,22,51,134,82,115c0,0-31,36-58,14s40,87,89,44
		c1,1-37,58-64,40c0,0,51,78,96,30c0,0-13,69-57,47s56,97,101,41c0,2-8,71-62,52c5.3,1.6,51,76,104,10
		C472.7,394.2,481.7,454.2,420.7,461.2z"/>
</g>
<g id="Layer_2" display="none">
	<polygon display="inline" fill="#808080" stroke="#000000" stroke-miterlimit="10" points="271.7,276.2 151.5,300.4 70.5,208.4 
		109.7,92.2 229.9,68.1 310.9,160.1 	"/>
</g>
</svg>
